<?xml version="1.0" encoding="utf-8"?>
<!-- Generator: Adobe Illustrator 16.0.0, SVG Export Plug-In . SVG Version: 6.00 Build 0)  -->
<!DOCTYPE svg PUBLIC "-//W3C//DTD SVG 1.1//EN" "http://www.w3.org/Graphics/SVG/1.1/DTD/svg11.dtd">
<svg version="1.1" id="Calque_1" xmlns="http://www.w3.org/2000/svg" xmlns:xlink="http://www.w3.org/1999/xlink" x="0px" y="0px"
	 width="651.021px" height="434.958px" viewBox="0 0 651.021 434.958" enable-background="new 0 0 651.021 434.958"
	 xml:space="preserve">
<circle fill="#0A3D62" cx="312.666" cy="113.872" r="99.504"/>
<circle fill="#0A3D62" cx="518.465" cy="203.735" r="132.556"/>
<circle fill="#0A3D62" cx="81.391" cy="217.387" r="81.391"/>
<circle fill="#0A3D62" cx="322.37" cy="243.651" r="191.307"/>
<g>
	<path fill="none" d="M152.443,324.62c0.024-0.043,0.048-0.09,0.072-0.133c0.206-0.389,0.411-0.768,0.616-1.143
		c10.283-19.367,22.66-57.727,22.66-57.727s-1.617,7.281-4.794,18.016c4.788-14.512,8.044-30.354,8.66-47.572
		c-2.38-3.99-3.882-7.685-3.824-9.193c0.038-0.988,1.525-1.767,3.838-2.326c-0.354-10.569-1.716-21.621-4.338-33.174
		c-4.617-20.342-11.617-34.181-18.568-43.545c-16.341,28.18-25.703,60.909-25.703,95.828c0,30.299,7.055,58.947,19.594,84.408
		C151.263,326.837,151.86,325.679,152.443,324.62z"/>
	<path fill="none" d="M199,217.701c0.937-1.407,1.871-2.778,2.804-4.13c6.358-12.291,17.484-25.409,17.484-25.409l0.001,0.003
		c-0.292-0.932-0.736-2.16-1.401-3.666c-0.463-0.837-0.887-1.729-1.271-2.664c-0.002-0.004-0.003-0.008-0.005-0.012l0.003,0.004
		c-3.948-9.631-3.651-23.797,1.219-28.126c0,0,18.054,1.934,27.904,13.142c3.272-2.268,6.483-4.232,9.629-5.923
		c-5.098,2.569-8.372,4.956-9.327,5.685c-0.099,0.079-0.196,0.15-0.295,0.23c0,0,0.103-0.083,0.295-0.23
		c46.406-36.891,85.005,1.445,86.038,2.486c0.341,0.318,0.612,0.582,0.815,0.783c1.265-0.977,2.728-1.83,4.43-2.489
		c0.455-0.199,0.909-0.363,1.361-0.475c0.007-0.003,0.013-0.005,0.02-0.007c12.171-3.693,15.102,8.373,18.192,14.644
		c0.31,0.548,0.599,1.073,0.866,1.575c0.001,0.001,0.002,0.002,0.003,0.004c2.678,4.192,4.977,6.047,6.635,5.79
		c0.525-0.22,0.983-0.53,1.336-0.817c1.618-2.004,5.265-14.48,14.14-17.48s13.75-1.25,18.313,4.75
		c2.818,3.706,5.517,12.943,7.168,19.466c1.128,4.089,1.645,7.034,1.645,7.034c13.5,8.5,53.5,2.5,53.5,2.5
		s23.202-11.955,14.732,8.83c-1.585,5.908-4.73,13.998-10.982,22.42c-12.25,16.5-46.414,30-46.414,30s-2.753,0.48-7.554,1.064
		c-1.818,0.691-3.636,1.359-5.449,2.004c-0.818,1.418-2.206,3.266-4.583,5.432c-5.625,5.125-11.125,1.875-9.625,0
		c0.207-0.26,0.396-0.588,0.57-0.957c-5.068,1.535-9.961,2.883-14.542,4.059c6.805-1.652,11.411-3.086,12.618-3.473
		c0.109-0.037,0.215-0.068,0.324-0.105c0,0-0.116,0.039-0.324,0.105c-16.326,5.393-30.496,8.631-42.795,10.281
		c-0.089,0.148-0.172,0.295-0.259,0.443c-0.59,1.049-2.118,3.953-3.47,8.113c0.004,0.004,20.004,17.459,45.502,14.746
		c0,0,0.955-0.641,6.729,0.902c1.462,0.285,3.09,0.719,4.604,1.385c3.242,1.426-4.143-0.525-17.455,2.543
		c-0.257,0.063-1.042,0.25-2.111,0.52c-3.245,0.842-6.797,1.977-10.602,3.521c0,0,4.413,2.604,8.161,3.963
		c3.181,1.02,6.927,1.609,10.589,0.703c0,0-3.546,4.422-11.384,5.227c-0.021,0.004-3.795,0.77-8.282-0.477
		c0,0,1.585,4.555,2.584,5.916c4.5,6.5,8.666,7.668,8.666,7.668s-0.169,0.006-0.482-0.004c0.02,0.002,0.039,0.004,0.059,0.006
		c0,0-3.799,0.896-18.201-4.461c0,0-9.283-2.027-11.579-1.348c1.526,1.951,3.277,3.893,5.288,5.809
		c17.576,16.752,48.23,38.828,59.997,71.953c58.935-32.602,98.846-95.389,98.846-167.506c0-105.656-85.65-191.307-191.307-191.307
		c-69.189,0-129.795,36.732-163.392,91.757C191.186,171.772,199,217.701,199,217.701z"/>
	<path fill="none" d="M463.974,232.544c-2.568,3.283-5.581,6.377-8.933,9.297c2.15-1.479,3.798-2.762,4.709-3.723
		C460.835,236.974,462.324,235.009,463.974,232.544z"/>
	<path fill="none" d="M342.746,292.593c-0.112,0.346-0.223,0.699-0.331,1.061c0.006,0.004,0.012,0.01,0.018,0.016L342.746,292.593z"
		/>
	<path fill="none" d="M182.079,368.911c-0.397,1.092-0.816,2.242-1.251,3.441c6.091,6.695,12.653,12.955,19.63,18.732
		c-2.495-5.932-4.981-11.895-7.161-17.146C189.999,373.155,186.211,371.638,182.079,368.911z"/>
	<path fill="#52DE97" d="M384.625,309.618c-4.875,1.75-33.743-5.281-42.684-14.266l0.491-1.684
		c-0.006-0.006-0.012-0.012-0.018-0.016c-2.797,9.299-4.354,24.055,6.147,38.443c2.146-0.051,10.33,0.053,19.442,4.021
		c0,0,5.485,2.654,11.263,3.08c0.313,0.01,0.482,0.004,0.482,0.004s-4.166-1.168-8.666-7.668c0,0-4.893-5.846-4.571-7.346
		c0,0,6.222,1.547,10.271,2.547h-0.002c7.838-1,11.384-5.547,11.384-5.547c-3.662,0.906-7.408,0.156-10.589-0.863
		c0.495,0.18,0.981,0.263,1.441,0.39c0.977,0.215,1.591,0.278,1.591,0.278c-0.479-0.047-1.017-0.18-1.591-0.338
		c-2.471-0.541-7.338-1.822-11.014-4.1c0,0,0.822-3.642,14.222-4.413c0,0-0.038,0.006-0.098,0.021
		c13.313-3.07,20.697-1.117,17.455-2.545C399.584,309.619,389.5,307.868,384.625,309.618z"/>
	<path fill="#52DE97" d="M380.018,312.681c-3.46,0.873-9.847,2.584-10.602,3.521C373.221,314.657,376.772,313.522,380.018,312.681z"
		/>
	<path fill="#52DE97" d="M394.979,308.233c1.284,0.344,2.8,0.793,4.604,1.385C398.069,308.952,396.441,308.519,394.979,308.233z"/>
	<path fill="#52DE97" d="M405.355,194.834c1.022,4.035,1.645,7.034,1.645,7.034S406.483,198.923,405.355,194.834z"/>
	<path fill="#52DE97" d="M356.896,181.547c0.285,0.579,0.571,1.112,0.866,1.575C357.494,182.62,357.205,182.095,356.896,181.547z"/>
	<path fill="#52DE97" d="M179.672,224.542c4.428-1.073,11.905-1.34,18.23-0.717l-0.064-0.008c0.644-3.109,2.102-6.643,3.965-10.246
		c-0.933,1.352-1.867,2.723-2.804,4.13c0,0-7.814-45.929-40.022-73.6c-0.752,1.231-1.488,2.473-2.212,3.722
		c6.951,9.364,13.951,23.203,18.568,43.545C177.956,202.921,179.317,213.973,179.672,224.542z"/>
	<path fill="#52DE97" d="M365.735,188.099L365.735,188.099c-0.353,0.287-0.811,0.598-1.336,0.817
		C364.906,188.837,365.356,188.568,365.735,188.099z"/>
	<path fill="#52DE97" d="M152.516,324.487c0.204-0.373,0.41-0.754,0.616-1.143C152.927,323.72,152.722,324.099,152.516,324.487z"/>
	<path fill="#52DE97" d="M337.322,167.385c0.439-0.171,0.89-0.331,1.361-0.475C338.231,167.021,337.777,167.186,337.322,167.385z"/>
	<path fill="#52DE97" d="M404.833,268.687c1.813-0.645,3.631-1.313,5.449-2.004c-1.404,0.172-2.983,0.352-4.722,0.531
		C405.393,267.632,405.158,268.122,404.833,268.687z"/>
	<path fill="#FDCB6E" d="M291.592,347.571c-2.697-3.01-5.592-6.453-5.592-6.453S288.326,343.968,291.592,347.571z"/>
	<path fill="#FDCB6E" d="M291.772,305.755l1.317-2.803C292.643,303.862,292.203,304.798,291.772,305.755z"/>
	<path fill="#FDCB6E" d="M289,359.351c0,0,0.033,0.152,0.093,0.416c-0.009-0.121-0.012-0.246-0.02-0.367
		C289.049,359.384,289.023,359.368,289,359.351z"/>
	<path fill="#FDCB6E" d="M320.074,337.319c-1.521-0.381-10.673-2.77-20.297-7.477C305.345,332.89,312.054,335.565,320.074,337.319z"
		/>
	<path fill="#FDCB6E" d="M403.5,409.202l-12.333,5.332l3.167-2.166l6.666-4.166l4.841-4.309c-4.74-10.4-11.503-21.389-21.025-32.514
		l-6.148,4.654l-10.662,4.168l9.329-5.834l5.248-5.541c-5.471-6.127-11.781-12.283-19.082-18.396c0,0-4.4-3.098-9.47-8.592
		l-4.53,4.363c0,0-10.834,4.832-9.5,4.166c1.334-0.668,6.666-4.334,6.666-4.334l5.518-6.279
		c-9.961-11.664-20.737-31.891-5.729-55.693c0.01-0.016,0.016-0.025,0.016-0.025c-0.005,0.008-0.01,0.018-0.016,0.025
		c-0.031,0.053-0.115,0.193-0.237,0.41c0.087-0.148,0.17-0.295,0.259-0.443c-16.685,2.24-29.914,1.549-40.353-0.711
		c-2.126,2.379-7.765,9.139-12.713,18.992c0.112,0.178,1.627,2.525,3.871,3.809c2.334,1.332,8.026,3.059,8.026,3.059l8.358,1.559
		H325l-9.833,2H308c0,0-6-2.018-7.666-2.35c-1.667-0.334-6.533-2-6.934-2.963c-0.399-0.961-1.648-1.562-1.653-1.563
		c-1.981,4.414-3.755,9.319-5.014,14.671c0.127,0.117,0.259,0.225,0.388,0.342c6.414,5.016,16.694,10.896,33.127,16.488
		c0.824,0.178,1.65,0.353,2.502,0.511c0,0,3.25,2.157,2,3.407c-0.609,0.609-9.186,1.457-18.131,1.457h0.009h-0.021
		c-5.21,0-10.534-0.131-14.493-0.393L288,342.196c0,0,9.124,11.212,6.263,8.296c0.54,0.57,1.093,1.124,1.655,1.696
		c4.106,1.383,9.314,3.078,10.582,3.273c2.167,0.334,12-0.131,12-0.131l11.084-1.231l-9.917,2.468l-11.294,1.483l-7.473-1.122
		c2.925,2.578,5.737,4.605,7.85,5.189c7.155,1.973-10.522,3.422-19.396-2.533c0.262,1.115,0.654,2.748,1.129,4.592
		c2.744,6.467,6.605,13.113,11.852,19.857c2.175,2.795,4.243,5.496,6.248,8.143l-1.004-1.328c0,0,13.756,4.52,17.422,3.854
		c3.666-0.668,10.666-3,10.666-3l9.668-3.334l8.832-2.5l-15,6.834l-12.832,4.166l-8.668,0.666l-6.691-2.188l-0.478-0.449
		c8.37,11.15,15.201,20.838,20.637,29.838H346h8c0,0,14.323-3.184,17.245-4.018c2.922-0.832,7.422-2.424,7.422-2.424
		s-11.667,6.12-16.333,7.12c-4.667,1-19.5,1.644-19.5,1.644l-9.65,0.646l-0.051-0.084c1.417,2.346,2.729,4.604,3.934,6.784
		c26.07-1.98,50.678-9.19,72.782-20.577c-0.839-2.383-1.778-4.808-2.83-7.269L403.5,409.202z"/>
	<path fill="#D8A148" d="M293.09,302.952l-1.19,2.803l0.101,0.057v0.002c0,0.002,1.127,0.557,1.527,1.518
		c0.4,0.963,5.203,2.721,6.87,3.055c1.666,0.332,7.603,2.35,7.603,2.35h7.167l9.833-2h-11.333l-8.358-1.559
		c0,0-5.692-1.635-8.026-2.967c-2.244-1.283-3.759-3.677-3.871-3.854c-0.005-0.006-0.011-0.038-0.011-0.038L293.09,302.952z"/>
	<path fill="#D8A148" d="M300.9,356.929l7.473,1.121l11.294-1.484l9.917-2.469l-11.084,1.23c0,0-9.833,0.457-12,0.125
		c-1.268-0.195-6.476-1.902-10.582-3.285C297.544,353.825,299.239,355.464,300.9,356.929z"/>
	<path fill="#D8A148" d="M310.975,395.347l6.691,2.188l8.668-0.666l12.832-4.166l15-6.834l-8.832,2.5l-9.668,3.334
		c0,0-7,2.332-10.666,3c-3.666,0.666-17.422-3.854-17.422-3.854l1.004,1.328l1.915,2.537L310.975,395.347z"/>
	<path fill="#D8A148" d="M333.133,427.798l0.051-0.014l9.65-0.704c0,0,14.833-0.688,19.5-1.688c4.666-1,16.333-7.178,16.333-7.178
		s-4.5,1.678-7.422,2.51c-2.922,0.834-17.245,4.012-17.245,4.012h-8h-14.866H331L333.133,427.798z"/>
	<path fill="#D8A148" d="M346.666,346.034c0,0-5.332,3.666-6.666,4.334c-1.334,0.666,9.5-4.166,9.5-4.166l4.53-4.363
		c-0.608-0.66-1.227-1.357-1.847-2.084L346.666,346.034z"/>
	<path fill="#D8A148" d="M368.005,380.202l10.662-4.168l6.148-4.654c-0.729-0.85-1.473-1.701-2.233-2.553l-5.248,5.541
		L368.005,380.202z"/>
	<path fill="#D8A148" d="M394.334,412.368l-3.167,2.166l12.333-5.332l3.519-2.645c-0.378-0.883-0.771-1.771-1.178-2.664L401,408.202
		L394.334,412.368z"/>
	<path fill="#52DE97" d="M294.678,376.935c0.075,0.137,0.148,0.264,0.223,0.383C294.826,377.194,294.752,377.067,294.678,376.935z"
		/>
	<g>
		<path fill="#52DE97" d="M476.839,203.878c-0.003,0.108-0.107,3.736-1.606,9.32C477.059,208.717,477.407,205.764,476.839,203.878z"
			/>
		<path fill="#52DE97" d="M460.5,204.368c0,0-40,6-53.5-2.5l1,2c0,0-4-3.516-6.5-12.633s-10.655-22.342-18.75-19.867
			s-13.24,15.75-14.745,17.25s-3.755,5.346-10.005-3.577s-12.25-19.923-18.5-16.173s-9.5,4.25-14.5,17.25
			c0,0,0.285-10.368,7.893-16.244c-0.203-0.201-0.475-0.465-0.815-0.783c0.014,0.015,0.024,0.025,0.024,0.025
			c-32.695-24.349-62.16-15.541-76.735-8.196c-3.146,1.69-6.357,3.655-9.629,5.923c0.656,0.746,1.273,1.534,1.849,2.365
			c-0.018-0.031-0.033-0.061-0.051-0.092c0,0,13.632,7.002-6.202,19.002c0,0-13.222,7.973-21.109,2.521l0.003,0.01
			c-11.334,10.166-19.906,33.464-19.906,33.464l-0.018-0.002c3.797,0.546,6.896,1.456,8.196,2.757c0,0-1.167,18-10.667,22.334
			c-1.321,0.602-2.704,0.674-4.104,0.365l0.433,0.189c0,0-6.616,16.023-9.048,34.354c0.893-8.571,2.636-23.314,5.041-35.376h0.001
			c-3.976-3-7.802-7.791-10.5-12.313c-0.616,17.219-3.872,32.881-8.66,47.391c-3.692,12.473-9.492,29.515-17.33,45.339
			c-0.405,0.818-0.811,1.628-1.217,2.507c7.686,14.816,17.245,28.482,28.377,40.717c0.436-1.199,0.854-2.361,1.251-3.453
			c-1.007-0.664-2.033-1.401-3.079-2.216c-13.075-10.186-8.748-14.009,7.982-19.159l-0.167,0.048
			c-3.214-18.453-2.377-37.067-2.377-37.067c2.688,32.912,6.095,35.951,6.095,35.951l-0.038,0.012
			c2.647-0.773,5.537-1.584,8.671-2.457c0,0,9.833,5,7.333,29.334c0,0-5.132,2.486-13.203,0.57
			c2.18,5.252,4.666,11.215,7.161,17.146c0.207,0.172,0.417,0.34,0.625,0.512l-6.92-17.355l1.838,0.426c0,0,4.521,10.84,8.261,19.49
			c32.523,25.559,73.536,40.801,118.109,40.801c4.945,0,9.846-0.188,14.696-0.557c-1.205-2.18-2.517-4.258-3.934-6.604L331,424.735
			h0.134c-5.436-9-12.267-18.688-20.637-29.838l-1.915-2.629c-2.005-2.646-4.073-5.394-6.248-8.188
			c-5.246-6.744-9.107-13.413-11.852-19.88c1.116,4.334,2.684,9.809,4.068,12.498c-1.264-2.127-4.816-8.751-5.439-16.932
			c-0.061-0.264-0.103-0.416-0.103-0.416c0.023,0.018,0.045,0.033,0.069,0.049c-0.029-0.447-0.064-0.893-0.076-1.35
			c0,0,0.128,0.58,0.352,1.535c8.875,5.955,26.553,4.506,19.397,2.533c-2.112-0.584-4.926-2.611-7.851-5.189
			c-1.66-1.465-3.356-3.104-4.982-4.762c-0.563-0.572-1.115-1.145-1.655-1.715c-0.009-0.008-0.014-0.012-0.022-0.021
			c-0.767-0.785-1.695-1.795-2.648-2.859c-3.266-3.604-5.592-6.453-5.592-6.453l20.619,1.301c8.945-0.143,17.521-0.691,18.131-1.301
			c1.25-1.25-2-3.25-2-3.25c-0.852-0.158-1.678-0.336-2.502-0.514c0.024,0.008,0.046,0.016,0.07,0.025c0,0-0.1-0.025-0.244-0.061
			c-8.021-1.754-14.729-4.43-20.297-7.477c-9.213-4.508-18.826-11.135-22.545-20.158c-0.475-1.014-0.596-1.586-0.596-1.586
			c0.174,0.537,0.381,1.064,0.596,1.586c0.997,2.131,3.562,6.229,9.889,11.176c-0.129-0.117-0.261-0.236-0.388-0.354
			c-7.507-6.945-10.483-13.139-10.483-13.139s3.104,6.193,10.609,13.139c1.26-5.352,3.141-10.279,5.141-14.693v-0.002l-0.101-0.057
			c0.431-0.957,0.807-1.893,1.254-2.803l0.278-0.658c0,0-0.01,0.01-0.005,0.016c4.948-9.854,10.579-16.613,12.705-18.992
			c-29.761-6.441-36.878-25.574-36.878-25.574c21.875,35.5,81.064,25.871,107.401,19.477c4.581-1.176,9.473-2.523,14.541-4.059
			c0.68-1.438,1.116-3.527,1.349-4.9c-5.637,0.33-11.979,0.541-18.795,0.502c-1.489,2.449-6.536,7.145-9.44,9.365
			c-4.077,3.115-6.844,2.9-4.74-1.854c1.509-3.412,2.39-6.322,2.595-8.387c-4.987-0.686-10.039-1.752-14.954-3.102
			c-2.569,3.232-6.496,6.283-10.335,9.332c-4.25,3.375-12.449,3.877-8.875-1.086c3.227-4.48,4.814-11.332,5.171-13.023
			c-11.211-4.605-20.22-10.416-23.671-15.891c0,0,19.5,15,40.75,18.75s54.75,4.5,68.75-1.5
			c11.166-4.785,27.569-13.701,36.041-19.527c3.352-2.92,6.364-6.014,8.933-9.297c5.19-7.756,11.98-20.51,12.864-28.669
			C474.767,197.021,460.5,204.368,460.5,204.368z M184.694,287.943c-0.168,1.752-0.256,2.769-0.256,2.769
			C184.507,289.71,184.594,288.835,184.694,287.943z M198.667,314.034c-6.333,7.168-27.5-14.5-27.5-17.832
			c0-3.334,24.167-8.668,30.333-7.168C201.5,289.034,205,306.868,198.667,314.034z M295.024,377.521
			c0.042,0.067,0.084,0.131,0.126,0.195C295.099,377.652,295.051,377.587,295.024,377.521z M294.125,380.202
			c0,0-0.813,0.633-2.479,0.816c1.051,0.101,1.942,0.041,2.626-0.154c-0.682,0.195-1.573,0.256-2.626,0.155
			c-4.406,0.49-14.777-2.155-31.84-27.933c-0.948-1.364-1.727-2.566-2.303-3.559C257.687,349.807,273.99,374.441,294.125,380.202z
			 M343.375,226.118c-9.872,0-17.875-8.004-17.875-17.875c0-9.873,8.003-17.875,17.875-17.875s17.875,8.002,17.875,17.875
			C361.25,218.114,353.247,226.118,343.375,226.118z M384.625,214.618c-6.696,0-12.125-5.43-12.125-12.125
			c0-6.697,5.429-12.125,12.125-12.125s12.125,5.428,12.125,12.125C396.75,209.188,391.321,214.618,384.625,214.618z
			 M458.203,224.69c-0.655,3.949-2.732,6.896-4.639,6.58c-1.906-0.316-2.922-3.775-2.268-7.725c0.655-3.951,2.732-6.896,4.639-6.58
			C457.842,217.281,458.857,220.74,458.203,224.69z M468.975,217.7c-0.433,3.39-2.171,5.961-3.883,5.742s-2.749-3.145-2.316-6.533
			c0.433-3.39,2.171-5.961,3.883-5.742S469.407,214.312,468.975,217.7z"/>
		<polygon fill="#52DE97" points="476.839,203.868 476.838,203.875 476.839,203.878 		"/>
	</g>
	<path fill="#52DE97" d="M259.806,353.087c-0.755-1.141-1.523-2.328-2.305-3.561C258.077,350.519,258.856,351.722,259.806,353.087z"
		/>
	<path fill="#52DE97" d="M306.606,342.419l-14.493-0.234C296.072,342.446,301.396,342.503,306.606,342.419z"/>
	<path fill="#FFFFFF" d="M343.375,226.118c9.872,0,17.875-8.004,17.875-17.875c0-9.873-8.003-17.875-17.875-17.875
		S325.5,198.37,325.5,208.243C325.5,218.114,333.503,226.118,343.375,226.118z M328,209.368c0-5.109,3.302-9.25,7.375-9.25
		c4.063,0,7.355,4.119,7.373,9.209l-1.581-0.543l-4.5,1.959l3.25,2.541l1.937,0.506c-1.25,2.876-3.683,4.828-6.479,4.828
		C331.302,218.618,328,214.476,328,209.368z"/>
	<path fill="#FFFFFF" d="M384.625,214.618c6.696,0,12.125-5.43,12.125-12.125c0-6.697-5.429-12.125-12.125-12.125
		s-12.125,5.428-12.125,12.125C372.5,209.188,377.929,214.618,384.625,214.618z M373.75,203.868c0-4.004,2.742-7.25,6.125-7.25
		s6.125,3.246,6.125,7.25c0,0.458-0.04,1.088-0.109,1.523L385,204.735h-3l-2.125,0.816l1.292,2.324l2.847,1.372
		c-1.091,1.186-2.541,1.894-4.139,1.894C376.492,211.142,373.75,207.872,373.75,203.868z"/>
	<path fill="#444444" d="M341.854,213.79l-1.937-0.506l-3.25-2.541l4.5-1.959l1.581,0.543c-0.018-5.09-3.311-9.209-7.373-9.209
		c-4.073,0-7.375,4.141-7.375,9.25c0,5.107,3.302,9.25,7.375,9.25C338.171,218.618,340.604,216.666,341.854,213.79z"/>
	<path fill="#444444" d="M384.014,209.202l-2.847-1.418l-1.292-2.232l2.125-0.816h3l0.891,0.656
		c0.069-0.436,0.109-0.974,0.109-1.432c0-4.004-2.742-7.296-6.125-7.296s-6.125,3.224-6.125,7.228s2.742,7.238,6.125,7.238
		C381.473,211.13,382.923,210.388,384.014,209.202z"/>
	<path fill="#FDCB6E" d="M217.888,184.499c-0.357-0.809-0.774-1.693-1.271-2.664C217,182.771,217.424,183.662,217.888,184.499z"/>
	<path fill="#FDCB6E" d="M224.75,190.368c2.25,0,11.167-2.25,16.583-6.25c5.399-3.987,11.692-5.496,6.253-14.91
		c-0.576-0.831-1.193-1.619-1.849-2.365c-9.85-11.208-27.904-13.142-27.904-13.142c-4.871,4.329-5.167,18.495-1.219,28.126
		C216.644,181.871,222.506,190.368,224.75,190.368z"/>
	<path fill="#FDCB6E" d="M190.157,248.011l3.573,1.557c1.4,0.309,2.783,0.236,4.104-0.365c9.5-4.334,10.667-22.334,10.667-22.334
		c-1.3-1.301-4.399-2.211-8.196-2.757l-2.401-0.286c-6.325-0.623-13.803-0.356-18.23,0.717c-2.313,0.56-3.8,1.338-3.838,2.326
		c-0.058,1.509,1.444,5.203,3.824,9.193C182.354,240.583,186.181,245.476,190.157,248.011z"/>
	<path fill="#FDCB6E" d="M171.167,296.202c0,3.332,21.167,25,27.5,17.832c6.333-7.166,2.833-25,2.833-25
		C195.333,287.534,171.167,292.868,171.167,296.202z"/>
	<path fill="#FDCB6E" d="M206.5,373.368c2.5-24.334-7.333-29.334-7.333-29.334c-3.134,0.873-6.024,1.684-8.671,2.457l-3.513,1.053
		c-16.73,5.15-21.057,8.973-7.982,19.158c1.045,0.814,2.072,1.545,3.079,2.209c4.132,2.727,7.92,4.244,11.218,5.027
		C201.368,375.854,206.5,373.368,206.5,373.368z"/>
	<path fill="#FDCB6E" d="M392.544,268.261c-0.232,1.373-0.669,3.463-1.349,4.9c-0.175,0.369-0.363,0.697-0.57,0.957
		c-1.5,1.875,4,5.125,9.625,0c2.377-2.166,3.765-4.014,4.583-5.432c0.325-0.564,0.56-1.055,0.728-1.473
		C401.878,267.595,397.484,267.972,392.544,268.261z"/>
	<path fill="#FDCB6E" d="M362.164,267.888c-0.205,2.064-1.086,4.975-2.595,8.387c-2.104,4.754,0.663,4.969,4.74,1.854
		c2.904-2.221,7.951-6.916,9.44-9.365l0,0C369.998,268.741,366.102,268.431,362.164,267.888z"/>
	<path fill="#FDCB6E" d="M328,273.032c-3.574,4.963,4.625,4.461,8.875,1.086c3.839-3.049,7.766-6.1,10.335-9.332
		c-4.887-1.344-9.632-2.967-14.039-4.777C332.814,261.7,331.227,268.552,328,273.032z"/>
	
		<ellipse transform="matrix(-0.1635 0.9865 -0.9865 -0.1635 750.2145 -187.8615)" fill="#FDCB6E" cx="454.75" cy="224.118" rx="7.25" ry="3.5"/>
	
		<ellipse transform="matrix(-0.1266 0.992 -0.992 -0.1266 740.4019 -217.3168)" fill="#FDCB6E" cx="465.875" cy="217.305" rx="6.187" ry="3.125"/>
	<path fill="#37AA6B" d="M463.974,232.544c-1.649,2.465-3.139,4.43-4.224,5.574c-0.911,0.961-2.559,2.244-4.709,3.723
		c-8.472,5.826-24.875,14.742-36.041,19.527c-14,6-47.5,5.25-68.75,1.5s-40.75-18.75-40.75-18.75
		c3.451,5.475,12.46,11.285,23.671,15.891c4.407,1.811,9.152,3.434,14.039,4.777c4.915,1.35,9.967,2.416,14.954,3.102
		c3.938,0.543,7.834,0.854,11.586,0.875l0,0c6.815,0.039,13.157-0.172,18.794-0.502c4.94-0.289,9.334-0.666,13.017-1.047
		c1.738-0.18,3.317-0.359,4.722-0.531c4.801-0.584,7.554-1.064,7.554-1.064s34.164-13.5,46.414-30
		c6.252-8.422,9.397-16.512,10.982-22.42c1.521-5.669,1.606-9.33,1.606-9.33C475.958,212.026,469.165,224.786,463.974,232.544z"/>
	<path fill="#37AA6B" d="M325,186.118c5-13,8.25-13.5,14.5-17.25s12.25,7.25,18.5,16.173s8.5,5.077,10.005,3.577
		s6.65-14.775,14.745-17.25s16.25,10.75,18.75,19.867s6.5,12.633,6.5,12.633l-1-2c0,0-0.622-2.999-1.645-7.034
		c-1.651-6.522-4.35-15.76-7.168-19.466c-4.563-6-9.438-7.75-18.313-4.75s-12.521,15.477-14.14,17.48l0,0
		c-0.379,0.47-0.829,0.738-1.336,0.817c-1.658,0.257-3.957-1.598-6.635-5.79c-0.001-0.002-0.002-0.003-0.003-0.004
		c-0.295-0.463-0.581-0.996-0.866-1.575c-3.091-6.271-6.021-18.337-18.192-14.644c-0.007,0.002-0.013,0.004-0.02,0.007
		c-0.472,0.144-0.922,0.304-1.361,0.475c-1.702,0.659-3.165,1.513-4.43,2.489C325.285,175.75,325,186.118,325,186.118z"/>
	<path fill="#37AA6B" d="M246.039,166.604c-0.192,0.147-0.295,0.23-0.295,0.23C245.843,166.755,245.94,166.684,246.039,166.604z"/>
	<path fill="#37AA6B" d="M332.102,169.116c0,0-0.011-0.011-0.024-0.025c-1.033-1.041-39.632-39.377-86.038-2.486
		c0.956-0.729,4.229-3.115,9.327-5.685C269.941,153.575,299.406,144.767,332.102,169.116z"/>
	<path fill="#37AA6B" d="M220.225,190.64c7.887,5.451,21.109-2.521,21.109-2.521c19.833-12,6.202-19.002,6.202-19.002
		c0.018,0.031,0.033,0.061,0.051,0.092c5.439,9.414-0.854,10.923-6.253,14.91c-5.417,4-14.333,6.25-16.583,6.25
		c-2.244,0-8.106-8.497-8.136-8.541l-0.003-0.004c0.002,0.004,0.003,0.008,0.005,0.012c0.497,0.971,0.914,1.855,1.271,2.664
		c0.665,1.506,1.11,2.734,1.401,3.666L220.225,190.64z"/>
	<path fill="#37AA6B" d="M200.322,224.113c0,0,8.572-23.298,19.906-33.464l-0.003-0.01l-0.936-2.475l-0.001-0.003
		c0,0-11.125,13.118-17.484,25.409c-1.864,3.604-3.322,7.137-3.965,10.246l0.064,0.008l2.401,0.286L200.322,224.113z"/>
	<path fill="#37AA6B" d="M389.271,273.747c0.208-0.066,0.324-0.105,0.324-0.105C389.486,273.679,389.381,273.71,389.271,273.747z"/>
	<path fill="#37AA6B" d="M269.25,257.743c0,0,7.113,19.133,36.874,25.574c10.438,2.26,23.668,2.951,40.353,0.711
		c12.299-1.65,26.469-4.889,42.795-10.281c-1.207,0.387-5.813,1.82-12.618,3.473C350.316,283.614,291.125,293.243,269.25,257.743z"
		/>
	<path fill="#37AA6B" d="M190.155,248.735c-2.592,13-4.417,29.129-5.235,37.271c2.252-18.963,9.242-36.07,9.242-36.07l-0.433,0.083
		l-3.573-1.284H190.155z"/>
	<path fill="#37AA6B" d="M184.92,285.644c-0.199,1.678-0.365,3.369-0.482,5.068C184.438,290.712,184.604,288.796,184.92,285.644z"/>
	<path fill="#37AA6B" d="M354.834,339.204c-2.011-1.916-3.762-3.857-5.288-5.809c-0.188,0.057-0.336,0.127-0.421,0.223l-1.125-1.5
		c0,0,0.208-0.012,0.563-0.021c-10.501-14.389-8.944-29.145-6.147-38.443c0.108-0.361,0.219-0.715,0.331-1.061l0.002-0.008l0,0
		c1.352-4.16,2.88-7.064,3.47-8.113c0.122-0.217,0.206-0.357,0.237-0.41c-15.009,23.803-4.232,44.029,5.729,55.693
		c0.62,0.727,1.238,1.424,1.847,2.084c5.069,5.494,9.47,8.592,9.47,8.592c7.301,6.113,13.611,12.27,19.082,18.396
		c0.761,0.852,1.505,1.703,2.233,2.553c9.522,11.125,16.285,22.113,21.025,32.514c0.407,0.893,0.8,1.781,1.178,2.664
		c1.052,2.461,1.991,4.885,2.83,7.268c1.677-0.863,3.335-1.756,4.982-2.668C403.064,378.032,372.41,355.956,354.834,339.204z"/>
	<path fill="#37AA6B" d="M346.455,284.062c0.006-0.008,0.011-0.018,0.016-0.025C346.471,284.036,346.465,284.046,346.455,284.062z"
		/>
	<path fill="#37AA6B" d="M190.533,346.479c0,0-3.407-3.041-6.095-35.951c0,0-0.836,18.613,2.377,37.064l0.167-0.049l3.513-1.053
		L190.533,346.479z"/>
	<path fill="#37AA6B" d="M194.162,374.241l6.92,17.355c1.052,0.863,2.109,1.719,3.179,2.561c-3.74-8.65-8.261-19.49-8.261-19.49
		L194.162,374.241z"/>
	<path fill="#37AA6B" d="M170.997,283.634c3.178-10.734,4.794-18.016,4.794-18.016s-12.377,38.359-22.66,57.727
		c-0.206,0.389-0.412,0.77-0.616,1.143c-0.024,0.043-0.048,0.09-0.072,0.133c-0.583,1.059-1.181,2.217-1.786,3.439
		c0.587,1.191,1.183,2.377,1.793,3.553c0.406-0.877,0.812-1.732,1.217-2.551C161.505,313.237,167.305,296.104,170.997,283.634z"/>
	<path fill="#37AA6B" d="M257.5,349.524c0-0.002-0.006-0.01-0.006-0.01c0.002,0.004,0.005,0.008,0.008,0.012
		c0.781,1.232,1.55,2.42,2.305,3.561c17.063,25.777,27.434,28.422,31.84,27.932c1.666-0.184,2.479-0.816,2.479-0.816
		C273.959,374.433,257.634,349.728,257.5,349.524z"/>
	<path fill="#37AA6B" d="M289.073,359.399c0.008,0.121,0.028,0.246,0.038,0.367c0.76,9.982,5.889,17.658,5.889,17.658v-0.002
		c0-0.033-0.061-0.072-0.081-0.105c-0.073-0.119-0.157-0.246-0.231-0.383c-1.415-2.592-3.05-8.291-4.2-12.758
		c-0.475-1.844-0.87-3.477-1.132-4.592c-0.225-0.955-0.354-1.535-0.354-1.535C289.012,358.507,289.044,358.952,289.073,359.399z"/>
	<path fill="#37AA6B" d="M277.232,309.685c-0.215-0.521-0.422-1.049-0.596-1.586C276.637,308.099,276.758,308.671,277.232,309.685z"
		/>
	<path fill="#37AA6B" d="M277.232,309.685c3.719,9.023,13.332,15.65,22.545,20.158c9.624,4.707,18.775,7.096,20.297,7.477
		c0.145,0.035,0.244,0.061,0.244,0.061c-0.024-0.01-0.046-0.018-0.07-0.025c-16.433-5.592-26.713-11.479-33.127-16.494
		C280.794,315.913,278.229,311.815,277.232,309.685z"/>
	<path fill="#37AA6B" d="M291.592,347.571c0.953,1.064,1.882,2.074,2.648,2.859c0.009,0.01,0.014,0.014,0.022,0.021
		c2.861,2.916-6.263-8.334-6.263-8.334l4.113,0.225l14.493,0.393h0.021h-0.009L286,341.276
		C286,341.276,288.895,344.562,291.592,347.571z"/>
	<path fill="#37AA6B" d="M342.746,292.593l-0.313,1.076l-0.491,1.684c8.94,8.984,37.809,16.016,42.684,14.266s14.959,0,14.959,0
		c-1.805-0.592-3.32-1.041-4.604-1.385c-5.774-1.543-6.729-0.902-6.729-0.902c-25.498,2.713-45.498-14.742-45.502-14.746l0,0
		L342.746,292.593z"/>
	<path fill="#37AA6B" d="M348.563,332.097c-0.354,0.01-0.563,0.021-0.563,0.021l1.125,1.5c0.085-0.096,0.232-0.166,0.421-0.223
		c2.296-0.68,11.579,1.348,11.579,1.348c14.402,5.357,18.201,4.461,18.201,4.461c-0.02-0.002-0.039-0.004-0.059-0.006
		c-5.777-0.426-11.263-3.08-11.263-3.08C358.893,332.149,350.708,332.046,348.563,332.097z"/>
	<path fill="#37AA6B" d="M379.019,320.636c0.574,0.158,1.112,0.27,1.591,0.316C380.609,320.952,379.995,320.849,379.019,320.636z"/>
	<path fill="#37AA6B" d="M368.005,316.546c3.676,2.275,8.543,3.549,11.014,4.09c-0.46-0.127-0.946-0.291-1.441-0.471
		c-3.748-1.359-8.161-3.963-8.161-3.963c0.755-0.938,7.142-2.648,10.602-3.521c1.069-0.27,1.854-0.457,2.111-0.52
		c0.06-0.014,0.098-0.023,0.098-0.023C368.827,312.909,368.005,316.546,368.005,316.546z"/>
	<path fill="#37AA6B" d="M366.513,324.188c-0.321,1.5,4.571,7.506,4.571,7.506c-0.999-1.361-2.584-5.677-2.584-5.677
		c4.487,1.246,8.261,0.718,8.282,0.718h0.002C372.734,325.735,366.513,324.188,366.513,324.188z"/>
</g>
<path fill="#52DE97" d="M97.285,311.976c6.028,5.826,13.454,9.307,21.156,10.48l4.621-20.924l7.509,20.883
	c8.012-1.293,15.689-5.092,21.762-11.377c14.943-15.461,14.523-40.107-0.937-55.049c-15.461-14.943-40.107-14.523-55.05,0.938
	C81.404,272.386,81.823,297.032,97.285,311.976z"/>
<path fill="#52DE97" d="M106.081,163.868c-20.174,0-37.376,12.691-44.079,30.523L93.5,211.154l-34.411,2.583
	c1.444,24.703,21.927,44.293,46.992,44.293c26.002,0,47.081-21.08,47.081-47.082S132.083,163.868,106.081,163.868z"/>
<path fill="#52DE97" d="M579.479,324.386l26.596-19.006c-9.815-31.582-39.27-54.512-74.08-54.512
	c-42.837,0-77.563,34.725-77.563,77.563s34.726,77.563,77.563,77.563c36.554,0,67.182-25.293,75.387-59.326L579.479,324.386z"/>
<path fill="#52DE97" d="M587.308,267.646c9.427,0.008,18.155-2.975,25.305-8.039l-12.599-20.543l22.382,11.037
	c5.475-7.301,8.722-16.37,8.73-26.197c0.021-24.181-19.563-43.799-43.743-43.82c-24.181-0.021-43.799,19.563-43.82,43.744
	C543.542,248.005,563.126,267.624,587.308,267.646z"/>
<path fill="#52DE97" d="M517.396,197.185c-9.404,0.635-17.91,4.205-24.698,9.744l13.969,19.637l-23.081-9.487
	c-4.965,7.659-7.587,16.927-6.925,26.733c1.625,24.125,22.501,42.363,46.627,40.738c24.125-1.627,42.362-22.502,40.738-46.629
	C562.399,213.796,541.524,195.559,517.396,197.185z"/>
<path fill="#52DE97" d="M58.651,293.323l-4.94,15.994c13.798,9.82,32.911,10.027,47.093-0.773
	c17.453-13.291,20.827-38.211,7.538-55.664c-13.291-17.453-38.212-20.827-55.665-7.537c-14.892,11.34-19.523,31.146-12.308,47.559
	L58.651,293.323z"/>
<path fill="#52DE97" d="M321.454,62.884c0.743-12.374-2.492-24.06-8.583-33.838L284.93,43.984l16.227-28.518
	c-9.158-7.753-20.809-12.72-33.707-13.495c-31.734-1.907-59.006,22.271-60.914,54.005c-1.907,31.735,22.271,59.007,54.006,60.914
	C292.274,118.797,319.546,94.62,321.454,62.884z"/>
<path fill="#52DE97" d="M591.033,153.546c-3.353-5.871-8.318-10.243-14.019-12.889l-11.387,22.65l1.983-25.355
	c-6.495-0.807-13.299,0.402-19.419,3.897c-15.062,8.602-20.298,27.782-11.697,42.842c8.601,15.063,27.781,20.299,42.843,11.697
	C594.397,187.79,599.635,168.608,591.033,153.546z"/>
<path fill="#37AA6B" d="M62.002,194.392c0,0,7.093-28.601,35.498-31.648c26.84-2.88,38,4.642,53.157,31.648
	c0,0-21.157-31.648-48.907-28.178C73.476,169.751,62.002,194.392,62.002,194.392z"/>
<path fill="#37AA6B" d="M72.763,200.118c0,0,25.487,12.5,28.737,14.5l-35.778-1.379l24.778-2.291
	C90.5,210.948,74.275,202.868,72.763,200.118z"/>
<path fill="#37AA6B" d="M163.085,280.204c0,0-2.659-43.586-46.622-31.836C116.463,248.368,149.67,240.04,163.085,280.204z"/>
<path fill="#37AA6B" d="M55.097,243.651c0,0,15.22-14.113,38.187-2.824c22.967,11.291,28.412,40.674,5.939,68.857
	c0,0-7.223,6.529-19.973,6.98c0,0,20.462-4.369,25.222-14.371c4.83-10.15,22.278-36.217-15.222-60.453
	C89.25,241.841,72.323,236.62,55.097,243.651z"/>
<polygon fill="#37AA6B" points="43,292.585 56,291.743 74.625,280.204 59.089,296.161 54.325,307.331 55.097,295.868 "/>
<path fill="#37AA6B" d="M143.507,317.88c0,0-8.115,4.582-12.936,4.535l-6.231-15.047l-4.62,9.297l3.03-17.643l8.863,17.643
	C131.613,316.665,134.264,321.392,143.507,317.88z"/>
<path fill="#37AA6B" d="M297.182,12.394l-9.23,26.279l16.383-23.306c0,0-24.984-24.407-54.659-11.704
	C249.675,3.664,279.695,1.087,297.182,12.394z"/>
<path fill="#37AA6B" d="M298.779,36.58l13.887-10.212c0,0,26.668,34-3.166,72s-81.267,18.186-92.883-6.24
	c0,0,40.049,36.907,75.049,13.574c35.001-23.333,30.835-45,28.001-57s-6.805-18.849-6.805-18.849L298.779,36.58z"/>
<path fill="#37AA6B" d="M547.228,206.32c0,0-25.478-24.702-54.978-1.202l-1.75,3.125l15.176,16.928l-9.926-18.053
	C495.75,207.118,515.955,185.772,547.228,206.32z"/>
<path fill="#37AA6B" d="M494.431,221.536l-9.931-6.918c0,0-12.334,12.588-7.94,34c0,0,1.084,9.381,7.61,16.924
	c0,0-12.17-17.174-3.42-37.549l5.25-9.375L494.431,221.536z"/>
<path fill="#37AA6B" d="M628.336,238.808c0,0-3.586,10.061-5.586,12.061l-20.719-10.789l2.894,7.025l4.685,7.895L597,238.808
	l-7.375-12.242l14.625,12.178l17.916,8.291C622.166,247.034,621.339,250.081,628.336,238.808z"/>
<path fill="#37AA6B" d="M548.755,203.169c0,0,18.246-33.135,50.746-22.301c0,0,17.931,5,26.799,23c0,0-18.995-24.563-38.772-23.125
	S555.447,196.347,548.755,203.169z"/>
<path fill="#37AA6B" d="M587.294,274.046c0,0-58.806-63.924-117.05,7.449c0,0,32.211-31.314,62.112-29.627
	C562.258,253.554,587.294,274.046,587.294,274.046z"/>
<path fill="#37AA6B" d="M456.812,347.571c0,0,29.085,69.396,105.012,52.471C561.823,400.042,481.373,434.274,456.812,347.571z"/>
<path fill="#37AA6B" d="M537.25,329.843l38-1.412l12.044,5.15l20.087,13.086l-22.69-20.299l21.384-20.988L578.5,323.532
	C578.5,323.532,543.75,330.093,537.25,329.843z"/>
<polygon fill="#37AA6B" points="292.59,39.889 266.68,60.578 276.167,49.201 "/>
<polygon fill="#37AA6B" points="506.667,226.565 518.863,237.192 509.667,231.751 "/>
<path fill="#37AA6B" d="M567.611,137.953l-1.516,19.371l10.919-16.666c0,0,1.111,0.288,3.325,1.797c0,0-0.506-0.919-2.173,0.747
	s-10.667,19.5-10.667,19.5l-4.667,6.419l1.294-9.419L567.611,137.953z"/>
<path fill="#37AA6B" d="M592.396,179.136c0,0,6.684-13.694-6.772-32.564c0,0,16.556,12.29,9.55,34.21L592.396,179.136z"/>
<path fill="#37AA6B" d="M537.796,151.454c0,0-14.373,27.018,14.249,46.799l-1.378,1.448
	C550.667,199.701,517.925,180.874,537.796,151.454z"/>
<path fill="#37AA6B" d="M545.712,210.082c0,0-7.982,22.325,1.832,41.802l6.623,1.984
	C554.167,253.868,540.588,236.724,545.712,210.082z"/>
</svg>
