<?xml version="1.0" encoding="utf-8"?>
<!-- Generator: Adobe Illustrator 16.0.0, SVG Export Plug-In . SVG Version: 6.00 Build 0)  -->
<!DOCTYPE svg PUBLIC "-//W3C//DTD SVG 1.1//EN" "http://www.w3.org/Graphics/SVG/1.1/DTD/svg11.dtd">
<svg version="1.1" xmlns="http://www.w3.org/2000/svg" xmlns:xlink="http://www.w3.org/1999/xlink" x="0px" y="0px"
	 width="354.349px" height="484.833px" viewBox="0 0 354.349 484.833" enable-background="new 0 0 354.349 484.833"
	 xml:space="preserve">
<g id="Calque_1" display="none">
	
		<image display="inline" overflow="visible" width="2478" height="3488" xlink:href="SCAN0000.JPG"  transform="matrix(3.583217e-009 0.3005 -0.3005 3.583217e-009 1049.9209 -36.2026)">
	</image>
</g>
<g id="Calque_6">
	<path fill="#FDCB6E" d="M118.42,354.333c0,0-15.833-5.834-22.833,0c0,0-0.833,16,24.5,22
		C120.087,376.333,121.753,358.167,118.42,354.333z"/>
	<path fill="#FDCB6E" d="M83.087,397.333c0,0,2.833-7.666-0.667-15.333s-9.56,2.24-15.28,8.203S83.087,397.333,83.087,397.333z"/>
	<path fill="#FDCB6E" d="M35.087,330.667c0,0,9.833-1.167,11.333,1.333s-4.333,17.833-7.833,18S34.921,332.833,35.087,330.667z"/>
	<path fill="#FDCB6E" d="M46.662,266c0,0,7.426,4.334,6.259,7.334s-7.5,6.501-9.833,5.167S46.662,266,46.662,266z"/>
</g>
<g id="Calque_7">
	<path fill="#52DE97" d="M214.814,159.74c0,0,17.521,22.594,52.814,18.927c0,0,5.042,0.083,9.209,1.917s-9.209-1.917-30.167,6.583
		c0,0,9.667,6.917,18.75,4.667c0,0-6,7.5-19.667,4.75c0,0-1.917-0.583,2.583,5.917s8.667,7.667,8.667,7.667s-5.333,0.25-15.5-3.917
		s-20-1.75-20-1.75L214.42,191l-1.5-16.917L214.814,159.74z"/>
	<path fill="#52DE97" d="M281.587,349.334c0,0,15.5,0.333,15.667,22s-7.833,30.833-7.833,30.833s12.834,8.168,31.667-6.166
		c0,0,0.832,2.634-1.334,8.483s-7.5,6.683-7.5,6.683s22.001,0.334,27.834-1.333c0,0-5.668,21-30.334,23
		c-24.667,2-25.833-5.833-25.833-5.833s10.166,17.167,20.667,17s-19.667,12.832-31.5-6.334s-8.833-16-8.833-16
		s-19.333-12.834-15.167-30S281.587,349.334,281.587,349.334z"/>
</g>
<g id="Calque_3">
	<g>
		<path fill="#52DE97" d="M13.859,1.167C12.013,0.299,10.92,0,10.92,0C11.916,0.371,12.892,0.764,13.859,1.167z"/>
		<path fill="#52DE97" d="M285.879,350.208c0,0,15.75-16.875,2.5-68.875s-97.792-68.167-65.125-126.667
			c0,0,94.501-14.167,120.834-55.167s-6.334-24.167-6.334-24.167s-40,6-53.5-2.5c0,0-10.5-60-40.5-14.5c0,0-4.167,5-7.333-1.5
			s-14.5-27.588-25.833-15.544c0,0-59.94-64.289-134.333,47.377c0,0-11.243-66.138-62.395-87.5
			c7.737,3.638,28.771,17.301,38.729,61.166c12.333,54.333-3,97.667-21.667,131s-44,123.333-23,184s54,99.667,167.667,69.334
			c0,0,2.667,37.333,49.333,37c0,0,1.208,0.416,1.083-1.709s-14.5-9.625-14.125-17.5c0,0,31.5,7.5,48.5-8.5c0,0,1.125-1.5-0.5-2
			s-19.625,0.875-25.375-2.875c0,0,15.5-3.875,17-12.125c0,0-20.5,9.25-35.25-2.25c0,0-2.375-7.625-2.5-11.75
			c0,0,16-8.875,19.625-17.875c0,0,15.25-11.75,16.875-14.625C260.254,386.916,285.879,350.208,285.879,350.208z M92.504,393.833
			c-57.5,6.25-58.75-70-52.25-96s23-67.5,23.25-70c0,0,18.75,45.75,26,61.5S150.004,387.583,92.504,393.833z"/>
	</g>
</g>
<g id="Calque_8">
	<path fill="#FDCB6E" d="M184.254,153.333c0,0-46.667,47.666-4.667,101.667s52,79.481,42.667,96.741S196.921,405,163.587,423
		s-45,34.465-45,34.465s52.167,3.869,94.333-33.798l20.188-15.974c0,0,55.813-38.36,60.479-75.693s-1.078-53.598-23.786-82.264
		s-71.479-52.851-45.813-95.184C223.989,154.552,200.92,158.333,184.254,153.333z"/>
</g>
<g id="Calque_10">
	<path fill="#D8A148" d="M170.654,173.259c0,0,1.549,2.492,3.882,3.825c2.334,1.333,8.026,2.875,8.026,2.875l8.359,1.375h11.333
		l-9.833,2h-7.167c0,0-6-1.833-7.667-2.167s-6.533-1.908-6.933-2.871S169,176.778,169,176.778L170.654,173.259z"/>
	<path fill="#D8A148" d="M167.897,221.333c0,0,13.69,4.75,15.857,5.083s12-0.125,12-0.125l11.084-1.229l-9.917,2.469l-11.294,1.484
		l-10.04-1.508l-7.69-1.254l-1.643-4.921H167.897z"/>
	<path fill="#D8A148" d="M184.832,261.814c0,0,13.755,4.521,17.422,3.854s10.667-3,10.667-3l9.667-3.334l8.833-2.5l-15,6.834
		l-12.833,4.166l-8.667,0.667l-6.691-2.188L184.832,261.814z"/>
	<path fill="#D8A148" d="M208.254,295.333h15h8c0,0,14.323-3,17.245-3.833s7.422-2.333,7.422-2.333s-11.667,6.166-16.333,7.166
		s-19.5,1.667-19.5,1.667l-9.649,0.657L208.254,295.333z"/>
	<path fill="#D8A148" d="M223.95,327.864c0,0,9.637,11.304,16.137,13.637s20.266,4.166,20.266,4.166s-13.266,0.333-26.099-3.5
		l-9.098-8.236L223.95,327.864z"/>
	<polygon fill="#D8A148" points="154.233,428.335 156.587,435.834 163.254,444.001 164.92,445.667 158.254,441.167 153.087,434.167 
		151.448,430.045 	"/>
	<path fill="#D8A148" d="M229.92,210.17l-6,6.831c0,0-5.333,3.666-6.667,4.333s9.5-4.167,9.5-4.167l5.7-5.49L229.92,210.17z"/>
	<polygon fill="#D8A148" points="260.353,239.246 254.587,245.333 245.259,251.167 255.921,247 262.817,241.781 	"/>
	<polygon fill="#D8A148" points="285.589,272.639 278.254,279.167 271.587,283.333 268.421,285.5 280.754,280.167 287.056,275.432 	
		"/>
	<polygon fill="#D8A148" points="293.094,335.052 288.587,338.167 284.087,340.5 277.738,343.167 283.087,341.667 288.087,340.167 
		292.108,339.11 	"/>
</g>
<g id="Calque_9">
	<path fill="#52DE97" d="M190.504,356.083c0,0,16.5-17,35.5,0s12.5,51-1.25,61.25c0,0-7.625,5.25-11.875,6.625
		c0,0,0.25,13.875,9.5,15.875s19.5,2.25,29.375-0.625c0,0,0.75,1.412,0,2.144s-5.875,7.356-16,10.231c0,0,9,3.25,15,2.625
		s9-1.215,9.5,0.08s-1,2.92-2,3.545s-18.25,12.5-46.125,6c0,0,4.5,11.375,6,13s7.1,3.75,7.3,5.5s-1.8,1.5-7.675,1.25
		s-31.5-6.25-37.25-22.875s-8.5-43.5-3.25-50.875C177.254,409.833,181.004,365.458,190.504,356.083z"/>
	<path fill="#52DE97" d="M153.504,178.333c0,0,11.5,24,46.5,30.5c0,0,3.25,2,2,3.25s-36,2.25-38.75,0c0,0,15.5,19,22.75,21
		s-11,3.467-19.75-2.767c0,0,3,13.767,6.25,18.517s-9,5.5-20.5-6.75s-18.5-22.5-18.5-24.5S136.504,182.583,153.504,178.333z"/>
</g>
<g id="oeil">
	<circle fill="#FFFFFF" cx="220.629" cy="79.208" r="17.875"/>
	<circle fill="#FFFFFF" cx="261.879" cy="73.458" r="12.125"/>
</g>
<g id="oeil_pupille">
	<path fill="#444444" d="M217.171,84.25l-3.25-2.542l4.5-1.958l1.582,0.542c-0.018-5.089-3.311-9.209-7.374-9.209
		c-4.073,0-7.375,4.142-7.375,9.25s3.302,9.25,7.375,9.25c2.796,0,5.228-1.952,6.479-4.828L217.171,84.25z"/>
	<path fill="#444444" d="M258.421,78.75l-1.292-2.417l2.125-1h3l0.891,0.84c0.069-0.435,0.109-0.881,0.109-1.34
		c0-4.004-2.742-7.25-6.125-7.25s-6.125,3.246-6.125,7.25s2.742,7.25,6.125,7.25c1.598,0,3.048-0.73,4.138-1.916L258.421,78.75z"/>
</g>
<g id="cornes_dents">
	<path fill="#FDCB6E" d="M128.421,48c0,0-11.5,15-24.5,14.167s-16.333-30.833-8.833-37.5C95.087,24.667,123.254,27.667,128.421,48z"
		/>
	<path fill="#FDCB6E" d="M85.754,97.833c0,0-1.167,18-10.667,22.333s-22.167-18-22-22.333S81.087,93.167,85.754,97.833z"/>
	<path fill="#FDCB6E" d="M78.754,160c0,0,3.5,17.833-2.833,25s-27.5-14.5-27.5-17.833S72.587,158.5,78.754,160z"/>
	<path fill="#FDCB6E" d="M76.42,215c0,0,9.833,4.999,7.333,29.333c0,0-11.667,5.667-27.5-6.667S50.087,222.334,76.42,215z"/>
	<path fill="#FDCB6E" d="M88.837,272.396c0,0-17.084,20.438-17.417,27.938s17.419,15.752,28.753,9.252L88.837,272.396z"/>
	<path fill="#FDCB6E" d="M283.254,136.583l-13.25,1.25c0,0-0.625,5.375-2.125,7.25s4,5.125,9.625,0S283.254,136.583,283.254,136.583
		z"/>
	<path fill="#FDCB6E" d="M239.35,136.826c0,0,8.102,1.534,11.347,1.345c3.245-0.188-5.057,7.806-9.133,10.922
		c-4.077,3.116-6.844,2.901-4.74-1.854C238.926,142.485,239.833,138.676,239.35,136.826z"/>
	<path fill="#FDCB6E" d="M210.504,130.583c0,0-1.546,8.271-5.25,13.414c-3.574,4.962,4.625,4.461,8.875,1.086
		s8.625-6.75,11.125-10.375L210.504,130.583z"/>
	
		<ellipse transform="matrix(0.9865 0.1635 -0.1635 0.9865 20.0129 -53.0013)" fill="#FDCB6E" cx="332.004" cy="95.083" rx="3.5" ry="7.25"/>
	
		<ellipse transform="matrix(0.9919 0.1267 -0.1267 0.9919 13.9527 -42.7719)" fill="#FDCB6E" cx="343.129" cy="88.271" rx="3.125" ry="6.187"/>
</g>
<g id="contours">
	<path fill="#37AA6B" d="M354.093,74.833c0,0-0.339,15.25-12.589,31.75s-46.415,30-46.415,30s-18.835,3.29-44.085,3.145
		s-57-13.145-64.25-24.645c0,0,19.5,15,40.75,18.75s54.75,4.5,68.75-1.5s36.25-18.5,40.75-23.25S352.932,85.583,354.093,74.833z"/>
	<path fill="#37AA6B" d="M202.254,57.083c0,0,0.405-15.179,13.703-19.214s15.564,10.747,19.062,16.223s6.353,6.977,7.971,4.973
		s5.265-14.481,14.14-17.481s13.75-1.25,18.313,4.75s8.813,26.5,8.813,26.5l1,2c0,0-4-3.516-6.5-12.633s-10.655-22.342-18.75-19.867
		s-13.24,15.75-14.745,17.25s-3.755,5.347-10.005-3.577s-12.25-19.923-18.5-16.173S207.254,44.083,202.254,57.083z"/>
	<path fill="#37AA6B" d="M209.356,40.082c0,0-39.185-40.082-86.358-2.282C122.998,37.8,162.921,5.5,209.356,40.082z"/>
	<path fill="#37AA6B" d="M124.789,40.082c0,0,13.632,7.001-6.202,19.001c0,0-13.668,8.25-21.501,2.25c0,0-0.348-2.937-3.221-8.544
		c0,0,5.889,8.544,8.139,8.544s11.167-2.25,16.583-6.25S130.324,49.581,124.789,40.082z"/>
	<path fill="#37AA6B" d="M96.542,59.128c0,0-18.611,21.938-21.449,35.655l2.483,0.296c0,0,8.572-23.297,19.906-33.464L96.542,59.128
		z"/>
	<path fill="#37AA6B" d="M266.849,144.608c0,0-91.845,30.351-120.345-15.899C146.504,128.708,164.944,178.382,266.849,144.608z"/>
	<path fill="#37AA6B" d="M67.409,118.976l4.007,1.746c0,0-8.286,20.051-9.724,40.957C61.692,161.678,63.814,137.119,67.409,118.976z
		"/>
	<path fill="#37AA6B" d="M223.725,155.002c0,0-18.304,29.754,8.362,55.168s83.444,63.082,58.68,132.998
		c0,0,20.236-62.958-50.014-121.771C240.754,221.396,199.946,192.67,223.725,155.002z"/>
	<path fill="#37AA6B" d="M175.587,446.667c0,0-66,30.001-120.667-1S0.609,340.198,0.609,340.198s7.444,85.471,60.211,105.47
		s99.434,6.666,114.767-4.334l1.175,5.095L175.587,446.667z"/>
	<path fill="#37AA6B" d="M61.692,181.494c0,0-0.836,18.612,2.377,37.065l3.717-1.114C67.787,217.445,64.38,214.405,61.692,181.494z"
		/>
	<path fill="#37AA6B" d="M73.254,245.633c0,0,11.733,28.134,13.033,29.917s-1.835,2.351-1.835,2.351l-13.036-32.694L73.254,245.633z
		"/>
	<path fill="#37AA6B" d="M96.237,296.671c0,0,51.856,88.329,3.937,96.662s-65.634-16.459-62.11-81.396
		c0,0-5.613,88.396,50.622,80.396S103.587,327.864,96.237,296.671z"/>
	<path fill="#37AA6B" d="M53.045,136.583c0,0-12.938,40.101-23.348,59.002C19.004,215,4.131,262.908,1.11,300.57
		c0,0,15.083-70.808,29.811-100.543C45.504,170.583,53.045,136.583,53.045,136.583z"/>
	<path fill="#37AA6B" d="M208.254,348.528c0,0,34.25,1.556,31.25,36.806s-25.607,38.246-25.607,38.246s25.096-10.995,22.107-38.746
		C233.436,360.99,227.504,354.222,208.254,348.528z"/>
	<path fill="#37AA6B" d="M177.441,407.828c0,0-22.688,73.256,44.563,77.006l3.425-2.5c0,0-2.675,2.75-10.925,0.25
		S169.129,478.072,177.441,407.828z"/>
	<path fill="#37AA6B" d="M267.722,377.571c0,0-19.801,22.702-35.635,31.982l1.956-2.985
		C234.043,406.568,255.564,392.258,267.722,377.571z"/>
	<path fill="#37AA6B" d="M256.58,453.592c0,0-41.576,2.241-43.701-29.634C212.879,423.958,207.156,457.351,256.58,453.592z"/>
	<path fill="#37AA6B" d="M287.768,350.008c0,0,24.486,9.326,2.117,51.558c0,0,18.202-40.564-3.433-49.047L287.768,350.008z"/>
	<path fill="#37AA6B" d="M289.587,403.5c0,0,4.167,11.772,50.5,6.053C340.088,409.553,299.254,419.667,289.587,403.5z"/>
	<path fill="#37AA6B" d="M134.747,220.48c0,0,16.382,24.896,36.632,30.687C171.379,251.167,159.865,260.126,134.747,220.48z"/>
	<path fill="#37AA6B" d="M166.254,229.016c0,0,3.428,15.431,5.964,19.374C172.218,248.39,166.504,239.824,166.254,229.016z"/>
	<path fill="#37AA6B" d="M153.89,179.064c0,0,3.251,15.542,43.683,29.281C197.573,208.345,160.526,199.544,153.89,179.064z"/>
	<path fill="#37AA6B" d="M183.882,213.385l-20.628-1.302c0,0,5.302,6.307,8.241,9.313s-6.241-8.313-6.241-8.313L183.882,213.385z"/>
	<path fill="#37AA6B" d="M220.002,163.551c0,0,20.001,17.458,45.501,14.745c0,0,1.417-0.963,11.333,2.287c0,0-10.083-1.75-14.958,0
		s-33.743-5.28-42.684-14.265L220.002,163.551z"/>
	<path fill="#37AA6B" d="M225.254,203.083c0,0,9.385-0.625,20.005,4c0,0,5.522,2.673,11.321,3.086c0,0-3.799,0.897-18.201-4.461
		c0,0-10.875-2.375-12-1.125L225.254,203.083z"/>
	<path fill="#37AA6B" d="M259.48,183.104c0,0-11.768,2.771-12.81,4.063c0,0,7.428,4.389,11.193,4.75c0,0-7.475-1.229-12.605-4.407
		C245.259,187.511,246.081,183.875,259.48,183.104z"/>
	<path fill="#37AA6B" d="M254.038,197.06c0,0-3.784,0.773-8.284-0.477c0,0,1.585,4.554,2.583,5.917c0,0-4.892-6.167-4.571-7.667
		C243.767,194.833,249.989,196.62,254.038,197.06z"/>
</g>
</svg>
