<svg width="520" height="504" viewBox="0 0 520 504" fill="none" xmlns="http://www.w3.org/2000/svg">
<path d="M188.7 477.5C229.6 498.6 278.6 499.4 320 479.3C370.9 454.7 442.1 394.1 494.1 245.6C495.5 241.6 497 237.7 498.7 233.9C503.8 222.3 515.2 193.9 505.6 191C505.6 191 495.2 185.4 454.9 220C454.9 220 416.6 256 389.5 255.8C386.8 255.8 384.1 254.4 382.8 252C380.9 248.6 379.1 241.9 379.3 229.1L390.8 23.1C390.8 23.1 390.8 22.9 390.8 22.5C391.3 12.9 378.8 8.79999 373.2 16.6C371.9 18.5 370.6 20.9 369.6 24.2L312.2 200.6C312.2 200.6 309.2 211.5 306.2 197.6L262.7 19.4C262.7 19.4 260 9.09999 251.2 10.2C251.2 10.2 243.3 10.2 241.5 26.6C241.5 26.6 226.3 153 219.1 186.1C219.1 186.1 216.7 201.8 210.6 203C210.6 203 200.9 206.6 192.5 192.1L121 75.9C119.7 73.9 118.1 72 116.3 70.5L116.2 70.4C109.6 65.1 99.7 70.3 99.8 78.7C99.8 81.1 100.3 84.1 101.4 87.7C101.4 87.7 128 182.6 125.6 232.7C125.6 232.7 124.5 245.7 118.4 247.8C118.4 247.8 110.5 250.2 96 242.4C96 242.4 55.5 220 25.9 196.5C25.9 196.5 22 192.9 16.7 195C11.9 197 9.69999 202.6 11.3 207.5C12 209.7 13.1 212.6 14.7 216.3C17.6 223.4 20.3 230.5 22.6 237.8C35.6 279.4 87.6 425.1 188.7 477.5Z" stroke="black" stroke-width="20" stroke-miterlimit="10"/>
</svg>
