<?xml version="1.0" encoding="utf-8"?>
<!-- Generator: Adobe Illustrator 16.0.0, SVG Export Plug-In . SVG Version: 6.00 Build 0)  -->
<!DOCTYPE svg PUBLIC "-//W3C//DTD SVG 1.1//EN" "http://www.w3.org/Graphics/SVG/1.1/DTD/svg11.dtd">
<svg version="1.1" id="Calque_1" xmlns="http://www.w3.org/2000/svg" xmlns:xlink="http://www.w3.org/1999/xlink" x="0px" y="0px"
	 width="617.383px" height="370.719px" viewBox="0 0 617.383 370.719" enable-background="new 0 0 617.383 370.719"
	 xml:space="preserve">
<path fill="#0A3D62" d="M392.931,370.719l-68.349-54.956l11.232-49.5l-36.502,29.182l-33.519-26.949l0.852-28.235l-25.19,8.665
	l-30.49-24.521l45.548-72.228l35.743,3.748l-16.702-33.946l21.142-33.527l55.776,19.077l-33.882-53.8L352.472,0L186.171,117.759
	L177.015,3.073L107.837,301.09l97.856,61.164l-3.808-47.676L392.931,370.719z M193.612,170.165
	c-0.088-1.492-0.152-2.992-0.152-4.524c0-20.769,8.632-37.599,19.29-37.599c10.648,0,19.285,16.83,19.285,37.599
	c0,20.278-8.236,36.763-18.549,37.519c6.924-2.889,11.964-11.661,11.964-22.034c0-3.616-0.628-7.021-1.716-10.068l-3.691,4.244
	l-7.293-2.721l3.292-7.147h5.796c-3.096-3-7.908-8.109-13.325-8.109C202.077,157.325,196.476,162.96,193.612,170.165z"/>
<g>
	<path fill="#0A3D62" d="M71.076,222.748H34.948l-6.931,13.419H1.475l51.611-95.85l51.464,95.85H78.007L71.076,222.748z
		 M61.786,204.757l-8.7-16.811l-8.848,16.811H61.786z"/>
</g>
<g>
	<path fill="#0A3D62" d="M327.565,212.833l11.469,18.188h-14.336l-11.143-16.958c-2.211,0-4.259,0-6.062,0v16.958h-12.78v-53.251
		h12.78c1.557,0,5.08,0,12.699,0c13.107,0,19.006,9.995,19.006,18.188C339.198,201.937,336.002,209.883,327.565,212.833z
		 M307.493,202.592h12.617c1.639,0,3.113-0.246,4.178-0.737c0.738-0.41,1.393-0.819,1.885-1.393
		c1.146-1.393,1.557-3.277,1.557-4.506c0-1.311-0.41-3.195-1.721-4.588c-1.229-1.475-3.113-2.13-5.816-2.13h-12.699V202.592z"/>
	<path fill="#0A3D62" d="M442.668,185.012c0,27.28-22.119,49.399-49.4,49.399c-27.279,0-49.398-22.119-49.398-49.399
		s22.119-49.399,49.398-49.399C420.549,135.613,442.668,157.732,442.668,185.012z M422.024,185.012
		c0-7.668-2.949-14.894-8.406-20.35c-5.455-5.456-12.682-8.405-20.35-8.405s-14.893,2.949-20.35,8.405
		c-5.455,5.456-8.404,12.682-8.404,20.35s2.949,14.894,8.404,20.35c5.457,5.309,12.682,8.405,20.35,8.405s14.895-3.097,20.35-8.405
		C419.075,199.906,422.024,192.68,422.024,185.012z"/>
	<path fill="#0A3D62" d="M465.938,211.194l-5.816,5.899v13.927h-12.779v-53.251h12.779v21.219l21.219-21.219h18.105l-24.414,24.332
		l27.691,28.919h-18.105L465.938,211.194z"/>
	<path fill="#0A3D62" d="M604.553,185.012c0,27.28-22.119,49.399-49.4,49.399c-27.279,0-49.398-22.119-49.398-49.399
		s22.119-49.399,49.398-49.399C582.434,135.613,604.553,157.732,604.553,185.012z M583.909,185.012
		c0-7.668-2.949-14.894-8.406-20.35c-5.455-5.456-12.682-8.405-20.35-8.405s-14.893,2.949-20.35,8.405
		c-5.455,5.456-8.404,12.682-8.404,20.35s2.949,14.894,8.404,20.35c5.457,5.309,12.682,8.405,20.35,8.405s14.895-3.097,20.35-8.405
		C580.959,199.906,583.909,192.68,583.909,185.012z"/>
</g>
<path fill="#0A3D62" d="M562.773,76.676c0,0,37.407-7.931,47.676,11.602c10.281,19.528,6.088,29.335,6.088,29.335
	s-7.497-21.067-26.822-30.577C570.386,77.52,572.462,78.702,562.773,76.676z"/>
<path fill="#0A3D62" d="M414.25,78.55c0,0,36.79-10.386,48.336,8.423c11.553,18.803,8.021,28.866,8.021,28.866
	s-8.877-20.526-28.791-28.732C421.902,78.892,424.05,79.934,414.25,78.55z"/>
</svg>
