<?xml version="1.0" encoding="utf-8"?>
<!-- Generator: Adobe Illustrator 16.0.0, SVG Export Plug-In . SVG Version: 6.00 Build 0)  -->
<!DOCTYPE svg PUBLIC "-//W3C//DTD SVG 1.1//EN" "http://www.w3.org/Graphics/SVG/1.1/DTD/svg11.dtd">
<svg version="1.1" id="Calque_1" xmlns="http://www.w3.org/2000/svg" xmlns:xlink="http://www.w3.org/1999/xlink" x="0px" y="0px"
	 width="627.924px" height="377.949px" viewBox="0 0 627.924 377.949" enable-background="new 0 0 627.924 377.949"
	 xml:space="preserve">
<path fill="#52DE97" d="M399.095,377.949l-69.683-56.028l11.452-50.466l-37.214,29.752l-34.173-27.476l0.869-28.785l-25.681,8.834
	l-31.085-25l46.436-73.637l36.439,3.821l-17.026-34.608l21.554-34.18l56.864,19.449l-34.543-54.85L357.847,0L188.303,120.056
	L178.967,3.132l-70.526,303.83l99.764,62.357l-3.882-48.606L399.095,377.949z M195.889,173.484c-0.09-1.521-0.155-3.05-0.155-4.613
	c0-21.175,8.801-38.332,19.666-38.332c10.856,0,19.661,17.157,19.661,38.332c0,20.673-8.397,37.48-18.911,38.251
	c7.06-2.944,12.199-11.889,12.199-22.463c0-3.687-0.64-7.158-1.75-10.265l-3.764,4.327l-7.435-2.673l3.356-7.186h5.909
	c-3.156-3-8.062-8.369-13.584-8.369C204.518,160.493,198.808,166.139,195.889,173.484z"/>
<g>
	<path fill="#FDCB6E" d="M70.963,227.09H34.128l-7.066,13.682H0l52.621-97.724l52.471,97.724H78.029L70.963,227.09z M61.491,208.748
		l-8.871-17.139L43.6,208.748H61.491z"/>
</g>
<g>
	<path fill="#FDCB6E" d="M332.453,216.979l11.694,18.543H329.53l-11.359-17.29c-2.256,0-4.344,0-6.181,0v17.29h-13.03v-54.292h13.03
		c1.586,0,5.178,0,12.947,0c13.364,0,19.378,10.191,19.378,18.543C344.314,205.869,341.056,213.972,332.453,216.979z
		 M311.989,206.538h12.863c1.671,0,3.174-0.251,4.26-0.752c0.752-0.418,1.42-0.835,1.921-1.42c1.17-1.42,1.588-3.341,1.588-4.594
		c0-1.337-0.418-3.258-1.755-4.678c-1.253-1.504-3.174-2.172-5.93-2.172h-12.947V206.538z"/>
	<path fill="#FDCB6E" d="M449.804,188.614c0,27.814-22.552,50.366-50.365,50.366c-27.814,0-50.366-22.552-50.366-50.366
		c0-27.813,22.552-50.365,50.366-50.365C427.252,138.249,449.804,160.8,449.804,188.614z M428.755,188.614
		c0-7.818-3.007-15.185-8.569-20.748c-5.563-5.563-12.93-8.569-20.747-8.569c-7.818,0-15.186,3.007-20.748,8.569
		c-5.563,5.563-8.569,12.93-8.569,20.748s3.007,15.185,8.569,20.748c5.563,5.412,12.93,8.569,20.748,8.569
		c7.817,0,15.185-3.157,20.747-8.569C425.749,203.799,428.755,196.432,428.755,188.614z"/>
	<path fill="#FDCB6E" d="M473.525,215.308l-5.931,6.015v14.199h-13.03v-54.292h13.03v21.633l21.633-21.633h18.46l-24.892,24.807
		l28.232,29.485h-18.459L473.525,215.308z"/>
	<path fill="#FDCB6E" d="M614.846,188.614c0,27.814-22.552,50.366-50.365,50.366c-27.814,0-50.366-22.552-50.366-50.366
		c0-27.813,22.552-50.365,50.366-50.365C592.294,138.249,614.846,160.8,614.846,188.614z M593.797,188.614
		c0-7.818-3.007-15.185-8.569-20.748c-5.563-5.563-12.93-8.569-20.747-8.569c-7.818,0-15.186,3.007-20.748,8.569
		c-5.563,5.563-8.569,12.93-8.569,20.748s3.007,15.185,8.569,20.748c5.563,5.412,12.93,8.569,20.748,8.569
		c7.817,0,15.185-3.157,20.747-8.569C590.791,203.799,593.797,196.432,593.797,188.614z"/>
</g>
<path fill="#FDCB6E" d="M572.25,78.171c0,0,38.135-8.085,48.605,11.829c10.48,19.908,6.207,29.907,6.207,29.907
	s-7.643-21.479-27.346-31.173C580.01,79.032,582.127,80.237,572.25,78.171z"/>
<path fill="#FDCB6E" d="M420.829,80.083c0,0,37.509-10.589,49.279,8.586c11.777,19.17,8.176,29.429,8.176,29.429
	s-9.049-20.926-29.352-29.292C428.63,80.431,430.821,81.493,420.829,80.083z"/>
</svg>
