<?xml version="1.0" encoding="utf-8"?>
<!-- Generator: Adobe Illustrator 16.0.0, SVG Export Plug-In . SVG Version: 6.00 Build 0)  -->
<!DOCTYPE svg PUBLIC "-//W3C//DTD SVG 1.1//EN" "http://www.w3.org/Graphics/SVG/1.1/DTD/svg11.dtd">
<svg version="1.1" xmlns="http://www.w3.org/2000/svg" xmlns:xlink="http://www.w3.org/1999/xlink" x="0px" y="0px"
	 width="382.614px" height="382.599px" viewBox="0 0 382.614 382.599" enable-background="new 0 0 382.614 382.599"
	 xml:space="preserve">
<g id="Calque_1">
</g>
<g id="Calque_2">
	<circle fill="#0A3D62" cx="191.307" cy="191.292" r="191.307"/>
	<g>
		<path fill="none" d="M21.38,272.26c0.024-0.043,0.048-0.089,0.072-0.133c0.206-0.388,0.411-0.768,0.616-1.143
			c10.283-19.366,22.66-57.727,22.66-57.727s-1.617,7.282-4.794,18.016c4.788-14.511,8.044-30.354,8.66-47.572
			c-2.38-3.99-3.882-7.684-3.824-9.193c0.038-0.988,1.525-1.766,3.838-2.326c-0.354-10.569-1.716-21.62-4.338-33.174
			c-4.617-20.342-11.617-34.18-18.568-43.544C9.361,123.643,0,156.373,0,191.292c0,30.299,7.055,58.947,19.594,84.408
			C20.2,274.477,20.797,273.318,21.38,272.26z"/>
		<path fill="none" d="M67.937,165.341c0.937-1.407,1.871-2.778,2.804-4.129c6.358-12.291,17.484-25.41,17.484-25.41l0.001,0.003
			c-0.292-0.932-0.736-2.16-1.401-3.667c-0.463-0.836-0.887-1.728-1.271-2.664c-0.002-0.004-0.003-0.007-0.005-0.011l0.003,0.004
			c-3.948-9.632-3.651-23.797,1.219-28.126c0,0,18.054,1.934,27.904,13.142c3.272-2.268,6.483-4.233,9.629-5.923
			c-5.098,2.569-8.372,4.956-9.327,5.685c-0.099,0.079-0.196,0.15-0.295,0.229c0,0,0.103-0.083,0.295-0.229
			c46.406-36.892,85.005,1.444,86.038,2.486c0.341,0.318,0.612,0.582,0.815,0.783c1.265-0.977,2.728-1.83,4.43-2.49
			c0.455-0.199,0.909-0.363,1.361-0.475c0.007-0.002,0.013-0.005,0.02-0.007c12.171-3.694,15.102,8.374,18.192,14.644
			c0.31,0.547,0.599,1.074,0.866,1.575c0.001,0.001,0.002,0.002,0.003,0.004c2.678,4.192,4.977,6.047,6.635,5.79
			c0.525-0.219,0.983-0.53,1.336-0.817c1.618-2.004,5.265-14.481,14.14-17.481s13.75-1.25,18.313,4.75
			c2.818,3.707,5.517,12.944,7.168,19.466c1.128,4.088,1.645,7.034,1.645,7.034c13.5,8.5,53.5,2.5,53.5,2.5
			s23.202-11.955,14.732,8.831c-1.585,5.908-4.73,13.998-10.982,22.419c-12.25,16.5-46.414,30-46.414,30s-2.753,0.48-7.554,1.064
			c-1.818,0.691-3.636,1.359-5.449,2.004c-0.818,1.418-2.206,3.266-4.583,5.432c-5.625,5.125-11.125,1.875-9.625,0
			c0.207-0.259,0.396-0.588,0.57-0.957c-5.068,1.535-9.961,2.883-14.542,4.059c6.805-1.652,11.411-3.086,12.618-3.473
			c0.109-0.036,0.215-0.068,0.324-0.104c0,0-0.116,0.038-0.324,0.104c-16.326,5.393-30.496,8.632-42.795,10.282
			c-0.089,0.148-0.172,0.295-0.259,0.442c-0.59,1.049-2.118,3.953-3.47,8.114c0.004,0.003,20.004,17.458,45.502,14.745
			c0,0,0.955-0.641,6.729,0.903c1.462,0.284,3.09,0.718,4.604,1.384c3.242,1.427-4.143-0.525-17.455,2.543
			c-0.257,0.063-1.042,0.25-2.111,0.52c-3.245,0.842-6.797,1.978-10.602,3.521c0,0,4.413,2.604,8.161,3.964
			c3.181,1.019,6.927,1.609,10.589,0.702c0,0-3.546,4.422-11.384,5.227c-0.021,0.005-3.795,0.77-8.282-0.477
			c0,0,1.585,4.555,2.584,5.916c4.5,6.5,8.666,7.668,8.666,7.668s-0.169,0.006-0.482-0.003c0.02,0.001,0.039,0.004,0.059,0.005
			c0,0-3.799,0.897-18.201-4.461c0,0-9.283-2.026-11.579-1.348c1.526,1.951,3.277,3.893,5.288,5.809
			c17.576,16.752,48.23,38.829,59.997,71.953c58.935-32.601,98.846-95.388,98.846-167.505c0-105.656-85.65-191.307-191.307-191.307
			c-69.189,0-129.795,36.732-163.392,91.757C60.123,119.412,67.937,165.341,67.937,165.341z"/>
		<path fill="none" d="M332.911,180.184c-2.568,3.283-5.581,6.378-8.933,9.298c2.15-1.479,3.798-2.762,4.709-3.724
			C329.772,184.613,331.261,182.648,332.911,180.184z"/>
		<path fill="none" d="M211.683,240.233c-0.112,0.345-0.223,0.698-0.331,1.06c0.006,0.005,0.012,0.01,0.018,0.016L211.683,240.233z"
			/>
		<path fill="none" d="M51.016,316.552c-0.397,1.092-0.816,2.242-1.251,3.441c6.091,6.695,12.653,12.955,19.63,18.731
			c-2.495-5.931-4.981-11.895-7.161-17.146C58.936,320.796,55.148,319.277,51.016,316.552z"/>
		<path fill="#52DE97" d="M253.562,257.258c-4.875,1.75-33.743-5.28-42.684-14.266l0.491-1.684
			c-0.006-0.006-0.012-0.011-0.018-0.016c-2.797,9.299-4.354,24.055,6.147,38.444c2.146-0.051,10.33,0.052,19.442,4.021
			c0,0,5.485,2.654,11.263,3.081c0.313,0.009,0.482,0.003,0.482,0.003s-4.166-1.168-8.666-7.668c0,0-4.893-6.029-4.571-7.529
			c0,0,6.222,1.363,10.271,2.363h-0.002c7.838-1,11.384-5.363,11.384-5.363c-3.662,0.907-7.408,0.248-10.589-0.771
			c0.495,0.18,0.981,0.308,1.441,0.435c0.977,0.215,1.591,0.301,1.591,0.301c-0.479-0.047-1.017-0.167-1.591-0.326
			c-2.471-0.54-7.338-1.816-11.014-4.094c0,0,0.822-3.639,14.222-4.409c0,0-0.038,0.008-0.098,0.022
			c13.313-3.07,20.697-1.117,17.455-2.545C268.521,257.258,258.437,255.508,253.562,257.258z"/>
		<path fill="#52DE97" d="M248.955,260.32c-3.46,0.873-9.847,2.585-10.602,3.521C242.158,262.298,245.709,261.162,248.955,260.32z"
			/>
		<path fill="#52DE97" d="M263.917,255.874c1.284,0.344,2.8,0.792,4.604,1.384C267.006,256.592,265.378,256.158,263.917,255.874z"/>
		<path fill="#52DE97" d="M274.292,142.474c1.022,4.035,1.645,7.034,1.645,7.034S275.42,146.563,274.292,142.474z"/>
		<path fill="#52DE97" d="M225.833,129.187c0.285,0.579,0.571,1.112,0.866,1.575C226.431,130.261,226.142,129.734,225.833,129.187z"
			/>
		<path fill="#52DE97" d="M48.609,172.182c4.428-1.073,11.905-1.339,18.23-0.717l-0.064-0.008c0.644-3.109,2.102-6.642,3.965-10.245
			c-0.933,1.352-1.867,2.723-2.804,4.129c0,0-7.814-45.929-40.022-73.6c-0.752,1.231-1.488,2.473-2.212,3.722
			c6.951,9.364,13.951,23.203,18.568,43.544C46.893,150.562,48.254,161.613,48.609,172.182z"/>
		<path fill="#52DE97" d="M234.672,135.739L234.672,135.739c-0.353,0.287-0.811,0.598-1.336,0.817
			C233.843,136.478,234.293,136.208,234.672,135.739z"/>
		<path fill="#52DE97" d="M21.453,272.127c0.204-0.372,0.41-0.754,0.616-1.143C21.864,271.359,21.659,271.739,21.453,272.127z"/>
		<path fill="#52DE97" d="M206.259,115.025c0.439-0.17,0.89-0.331,1.361-0.475C207.168,114.662,206.714,114.826,206.259,115.025z"/>
		<path fill="#52DE97" d="M199.937,372.008h0.134c-5.436-8.694-12.267-18.504-20.637-29.653l-1.915-2.537
			c-2.005-2.646-4.073-5.348-6.248-8.144c-5.246-6.744-9.108-13.391-11.851-19.856c1.15,4.466,2.78,10.165,4.195,12.758
			c0.074,0.132,0.148,0.259,0.222,0.383c0.021,0.033,0.042,0.072,0.063,0.104c0.096,0.155,0.191,0.305,0.287,0.445
			c1.47,2.148-0.237,3.473-3.604,3.151c-4.406,0.489-14.777-2.155-31.84-27.933c-0.949-1.364-1.729-2.568-2.305-3.561
			c-0.003-0.004-0.005-0.008-0.008-0.012c0,0,0.006,0.009,0.006,0.01c-0.818-1.409-1.25-2.412-1.25-2.906c0-2,3-35,20-39.25
			c0,0,2.977,6.193,10.483,13.139c1.259-5.352,3.033-10.279,5.014-14.693l-0.001-0.001l0.026-0.057
			c0.431-0.958,0.871-1.894,1.318-2.803l0.31-0.659c0,0,0.006,0.01,0.011,0.017c4.948-9.854,10.587-16.614,12.713-18.993
			c-29.761-6.44-36.874-25.574-36.874-25.574c21.875,35.5,81.066,25.871,107.403,19.477c4.581-1.176,9.474-2.523,14.542-4.059
			c0.68-1.438,1.116-3.527,1.349-4.9c-5.637,0.33-11.979,0.541-18.794,0.502c-1.489,2.449-6.536,7.145-9.44,9.365
			c-4.077,3.116-6.844,2.9-4.74-1.854c1.509-3.412,2.39-6.322,2.595-8.387c-4.987-0.686-10.039-1.751-14.954-3.102
			c-2.569,3.232-6.496,6.283-10.335,9.332c-4.25,3.375-12.449,3.877-8.875-1.086c3.227-4.48,4.814-11.331,5.171-13.022
			c-11.211-4.605-20.22-10.417-23.671-15.892c0,0,19.5,15,40.75,18.75s54.75,4.5,68.75-1.5
			c11.166-4.785,27.569-13.701,36.041-19.526c3.352-2.92,6.364-6.015,8.933-9.298c5.191-7.757,11.984-20.518,12.865-28.676
			c0,0-0.085,3.662-1.606,9.331c8.47-20.786-14.732-8.831-14.732-8.831s-40,6-53.5-2.5l1,2c0,0-4-3.516-6.5-12.633
			s-10.655-22.342-18.75-19.867s-13.24,15.75-14.745,17.25s-3.755,5.347-10.005-3.577s-12.25-19.923-18.5-16.173
			s-9.5,4.25-14.5,17.25c0,0,0.285-10.368,7.893-16.243c-0.203-0.202-0.475-0.465-0.815-0.783c0.014,0.014,0.024,0.025,0.024,0.025
			c-32.695-24.349-62.16-15.541-76.735-8.196c-3.146,1.69-6.357,3.655-9.629,5.923c0.656,0.747,1.273,1.534,1.849,2.365
			c-0.018-0.031-0.033-0.06-0.051-0.091c0,0,13.632,7.001-6.202,19.001c0,0-13.222,7.973-21.109,2.522l0.003,0.01
			c-11.334,10.167-19.906,33.464-19.906,33.464l-0.018-0.002c3.797,0.545,6.896,1.457,8.196,2.756c0,0-1.167,18-10.667,22.333
			c-1.321,0.603-2.704,0.675-4.104,0.366l0.433,0.188c0,0-6.99,16.926-9.242,35.888c-0.316,3.152-0.482,5.068-0.482,5.068
			c0.117-1.699,0.283-3.212,0.482-4.89c0.818-8.143,2.644-24.455,5.235-37.455h0.001c-3.976-3-7.802-7.606-10.5-12.128
			c-0.616,17.219-3.872,32.972-8.66,47.482c-3.692,12.472-9.492,29.56-17.33,45.384c-0.405,0.818-0.811,1.65-1.217,2.529
			c7.686,14.816,17.245,28.494,28.377,40.729c0.436-1.199,0.854-2.354,1.251-3.446c-1.007-0.664-2.033-1.398-3.079-2.213
			c-13.075-10.186-8.748-14.009,7.982-19.159l-0.167,0.049c-3.214-18.453-2.377-37.065-2.377-37.065
			c2.688,32.911,6.095,35.95,6.095,35.95l-0.038,0.012c2.647-0.773,5.537-1.583,8.671-2.456c0,0,9.833,4.999,7.333,29.333
			c0,0-5.132,2.486-13.203,0.57c2.18,5.252,4.666,11.216,7.161,17.146c0.207,0.172,0.417,0.341,0.625,0.512l-6.92-17.355
			l1.838,0.426c0,0,4.521,10.84,8.261,19.49c32.523,25.559,73.536,40.802,118.109,40.802c4.945,0,9.846-0.188,14.696-0.557
			c-1.205-2.181-2.517-4.442-3.934-6.787L199.937,372.008z M331.712,164.549c0.433-3.389,2.171-5.96,3.883-5.741
			s2.749,3.144,2.316,6.533c-0.433,3.389-2.171,5.96-3.883,5.741S331.28,167.938,331.712,164.549z M320.234,171.186
			c0.655-3.95,2.732-6.896,4.639-6.58s2.922,3.775,2.268,7.725c-0.655,3.95-2.732,6.896-4.639,6.58S319.58,175.135,320.234,171.186z
			 M253.562,138.008c6.696,0,12.125,5.429,12.125,12.125s-5.429,12.125-12.125,12.125s-12.125-5.429-12.125-12.125
			S246.866,138.008,253.562,138.008z M212.312,138.008c9.872,0,17.875,8.003,17.875,17.875s-8.003,17.875-17.875,17.875
			s-17.875-8.003-17.875-17.875S202.44,138.008,212.312,138.008z M67.604,261.675c-6.333,7.167-27.5-14.5-27.5-17.833
			c0-3.334,24.167-8.667,30.333-7.167C70.437,236.675,73.937,254.508,67.604,261.675z"/>
		<path fill="#52DE97" d="M273.77,216.326c1.813-0.645,3.631-1.313,5.449-2.004c-1.404,0.172-2.983,0.352-4.722,0.531
			C274.33,215.271,274.095,215.763,273.77,216.326z"/>
		<path fill="#FDCB6E" d="M160.529,295.211c-2.697-3.01-5.592-6.453-5.592-6.453S157.263,291.607,160.529,295.211z"/>
		<path fill="#FDCB6E" d="M160.709,253.396l1.318-2.803C161.58,251.502,161.141,252.438,160.709,253.396z"/>
		<path fill="#FDCB6E" d="M157.937,306.991c0,0,0.033,0.151,0.093,0.415c-0.009-0.121-0.012-0.245-0.02-0.367
			C157.986,307.023,157.96,307.008,157.937,306.991z"/>
		<path fill="#FDCB6E" d="M189.011,284.959c-1.521-0.38-10.673-2.77-20.297-7.477C174.282,280.529,180.991,283.206,189.011,284.959z
			"/>
		<path fill="#FDCB6E" d="M272.437,356.842l-12.333,5.333l3.167-2.167l6.666-4.166l4.841-4.309
			c-4.74-10.4-11.503-21.388-21.025-32.513l-6.148,4.653l-10.662,4.168l9.329-5.834l5.248-5.541
			c-5.471-6.127-11.781-12.283-19.082-18.396c0,0-4.4-3.098-9.47-8.592l-4.53,4.363c0,0-10.834,4.833-9.5,4.166
			s6.666-4.333,6.666-4.333l5.518-6.28c-9.961-11.663-20.737-31.89-5.729-55.693c0.01-0.016,0.016-0.025,0.016-0.025
			c-0.005,0.009-0.01,0.018-0.016,0.025c-0.031,0.053-0.115,0.193-0.237,0.41c0.087-0.147,0.17-0.294,0.259-0.442
			c-16.685,2.239-29.914,1.548-40.353-0.712c-2.126,2.379-7.765,9.139-12.713,18.993c0.112,0.177,1.627,2.525,3.871,3.808
			c2.334,1.333,8.026,2.875,8.026,2.875l8.358,1.375h11.333l-9.833,2h-7.167c0,0-6-1.833-7.667-2.166
			c-1.667-0.334-6.533-1.908-6.933-2.871c-0.399-0.961-1.649-1.516-1.653-1.518c-1.981,4.414-3.755,9.342-5.014,14.693
			c0.127,0.118,0.258,0.236,0.388,0.354c6.414,5.017,16.694,10.903,33.126,16.494c0.824,0.179,1.65,0.355,2.502,0.514
			c0,0,3.25,1.975,2,3.225c-0.609,0.609-9.186,1.275-18.131,1.275h0.009h-0.021c-5.21,0-10.534,0.053-14.493-0.209l-4.113-0.054
			c0,0,9.124,11.257,6.263,8.341c0.541,0.57,1.093,1.146,1.655,1.719c4.107,1.383,9.315,3.09,10.583,3.285
			c2.167,0.334,12-0.125,12-0.125l11.084-1.229l-9.917,2.47l-11.294,1.484l-7.473-1.122c2.925,2.578,5.737,4.606,7.85,5.189
			c7.155,1.974-10.522,3.423-19.397-2.532c0.262,1.114,0.655,2.747,1.13,4.592c2.743,6.466,6.605,13.112,11.851,19.856
			c2.175,2.796,4.243,5.497,6.248,8.144l-1.004-1.329c0,0,13.756,4.521,17.422,3.854s10.666-3,10.666-3l9.668-3.334l8.832-2.5
			l-15,6.834l-12.832,4.166l-8.668,0.667l-6.691-2.188l-0.478-0.632c8.37,11.149,15.201,20.959,20.637,29.653h14.866h8
			c0,0,14.323-3,17.245-3.833s7.422-2.333,7.422-2.333s-11.667,6.166-16.333,7.166c-4.667,1-19.5,1.667-19.5,1.667l-9.65,0.657
			l-0.051-0.077c1.417,2.345,2.729,4.606,3.934,6.787c26.07-1.98,50.678-9.189,72.782-20.576c-0.839-2.383-1.778-4.807-2.83-7.268
			L272.437,356.842z"/>
		<path fill="#D8A148" d="M162.027,250.593l-1.318,2.803l-0.026,0.057l0.001,0.001c0.004,0.002,1.254,0.557,1.653,1.518
			c0.4,0.963,5.267,2.537,6.933,2.871c1.667,0.333,7.667,2.166,7.667,2.166h7.167l9.833-2h-11.333l-8.358-1.375
			c0,0-5.692-1.542-8.026-2.875c-2.244-1.282-3.759-3.631-3.871-3.808c-0.004-0.007-0.011-0.017-0.011-0.017L162.027,250.593z"/>
		<path fill="#D8A148" d="M169.837,304.568l7.473,1.122l11.294-1.484l9.917-2.469l-11.084,1.229c0,0-9.833,0.458-12,0.125
			c-1.268-0.195-6.476-1.901-10.583-3.284C166.481,301.465,168.176,303.104,169.837,304.568z"/>
		<path fill="#D8A148" d="M179.912,342.986l6.691,2.188l8.668-0.667l12.832-4.166l15-6.834l-8.832,2.5l-9.668,3.334
			c0,0-7,2.333-10.666,3s-17.422-3.854-17.422-3.854l1.004,1.329l1.915,2.537L179.912,342.986z"/>
		<path fill="#D8A148" d="M202.07,375.255l0.051,0.077l9.65-0.657c0,0,14.833-0.667,19.5-1.667c4.666-1,16.333-7.166,16.333-7.166
			s-4.5,1.5-7.422,2.333s-17.245,3.833-17.245,3.833h-8h-14.866h-0.134L202.07,375.255z"/>
		<path fill="#D8A148" d="M215.603,293.675c0,0-5.332,3.666-6.666,4.333s9.5-4.166,9.5-4.166l4.53-4.363
			c-0.608-0.66-1.227-1.357-1.847-2.084L215.603,293.675z"/>
		<path fill="#D8A148" d="M236.942,327.842l10.662-4.168l6.148-4.653c-0.729-0.851-1.473-1.702-2.233-2.554l-5.248,5.541
			L236.942,327.842z"/>
		<path fill="#D8A148" d="M263.271,360.008l-3.167,2.167l12.333-5.333l3.519-2.644c-0.378-0.884-0.771-1.772-1.178-2.665
			l-4.841,4.309L263.271,360.008z"/>
		<path fill="#52DE97" d="M163.615,324.575c0.075,0.137,0.148,0.264,0.222,0.383C163.763,324.834,163.689,324.707,163.615,324.575z"
			/>
		<path fill="#52DE97" d="M145.187,255.008c-17,4.25-20,37.25-20,39.25c0,0.494,0.431,1.497,1.25,2.906
			c0.134,0.203,16.459,24.909,36.625,30.678c0,0-0.813,0.633-2.479,0.817c3.368,0.321,5.093-1.003,3.623-3.151
			c-0.096-0.141-0.269-0.29-0.269-0.445c0,0.001,0,0.002,0,0.002s-5.128-7.676-5.889-17.658c-0.06-0.264-0.102-0.415-0.102-0.415
			c0.023,0.017,0.045,0.032,0.069,0.048c-0.029-0.447-0.064-0.893-0.075-1.349c0,0,0.127,0.579,0.352,1.535
			c8.875,5.955,26.552,4.506,19.397,2.532c-2.112-0.583-4.926-2.611-7.85-5.189c-1.661-1.465-3.357-3.104-4.983-4.761
			c-0.562-0.572-1.114-1.146-1.655-1.715c-0.008-0.009-0.014-0.013-0.022-0.022c-0.767-0.784-1.696-1.795-2.649-2.859
			c-3.266-3.604-5.592-6.453-5.592-6.453l20.619,1.301c8.945-0.143,17.521-0.691,18.131-1.301c1.25-1.25-2-3.25-2-3.25
			c-0.852-0.158-1.678-0.335-2.502-0.514c0.024,0.008,0.046,0.017,0.07,0.025c0,0-0.1-0.025-0.244-0.061
			c-8.021-1.753-14.729-4.43-20.297-7.477c-9.213-4.507-18.826-11.135-22.544-20.158c-0.475-1.014-0.597-1.586-0.597-1.586
			c0.174,0.538,0.381,1.064,0.597,1.586c0.997,2.131,3.561,6.229,9.889,11.176c-0.13-0.117-0.261-0.235-0.388-0.354
			C148.164,261.201,145.187,255.008,145.187,255.008z"/>
		<path fill="#52DE97" d="M128.743,300.727c-0.755-1.141-1.523-2.327-2.305-3.561C127.014,298.158,127.793,299.362,128.743,300.727z
			"/>
		<path fill="#52DE97" d="M175.543,290.059l-14.493-0.234C165.01,290.086,170.333,290.143,175.543,290.059z"/>
		<path fill="#FFFFFF" d="M212.312,173.758c9.872,0,17.875-8.003,17.875-17.875s-8.003-17.875-17.875-17.875
			s-17.875,8.003-17.875,17.875S202.44,173.758,212.312,173.758z M196.937,157.008c0-5.108,3.302-9.25,7.375-9.25
			c4.063,0,7.355,4.12,7.373,9.209l-1.581-0.542l-4.5,1.958l3.25,2.542l1.937,0.505c-1.25,2.876-3.683,4.828-6.479,4.828
			C200.239,166.258,196.937,162.116,196.937,157.008z"/>
		<path fill="#FFFFFF" d="M253.562,162.258c6.696,0,12.125-5.429,12.125-12.125s-5.429-12.125-12.125-12.125
			s-12.125,5.429-12.125,12.125S246.866,162.258,253.562,162.258z M242.687,151.508c0-4.004,2.742-7.25,6.125-7.25
			s6.125,3.246,6.125,7.25c0,0.458-0.04,0.905-0.109,1.34l-0.891-0.84h-3l-2.125,1l1.292,2.417l2.847,1.417
			c-1.091,1.186-2.541,1.916-4.139,1.916C245.429,158.758,242.687,155.512,242.687,151.508z"/>
		<path fill="#444444" d="M210.791,161.43l-1.937-0.505l-3.25-2.542l4.5-1.958l1.581,0.542c-0.018-5.089-3.311-9.209-7.373-9.209
			c-4.073,0-7.375,4.142-7.375,9.25s3.302,9.25,7.375,9.25C207.108,166.258,209.541,164.306,210.791,161.43z"/>
		<path fill="#444444" d="M252.951,156.842l-2.847-1.417l-1.292-2.417l2.125-1h3l0.891,0.84c0.069-0.435,0.109-0.881,0.109-1.34
			c0-4.004-2.742-7.25-6.125-7.25s-6.125,3.246-6.125,7.25s2.742,7.25,6.125,7.25C250.41,158.758,251.86,158.028,252.951,156.842z"
			/>
		<path fill="#FDCB6E" d="M86.825,132.139c-0.357-0.809-0.774-1.693-1.271-2.664C85.938,130.411,86.361,131.302,86.825,132.139z"/>
		<path fill="#FDCB6E" d="M93.687,138.008c2.25,0,11.167-2.25,16.583-6.25c5.399-3.987,11.692-5.495,6.253-14.91
			c-0.576-0.831-1.193-1.618-1.849-2.365c-9.85-11.208-27.904-13.142-27.904-13.142c-4.871,4.33-5.167,18.495-1.219,28.126
			C85.581,129.511,91.443,138.008,93.687,138.008z"/>
		<path fill="#FDCB6E" d="M59.094,195.651l3.573,1.557c1.4,0.309,2.783,0.236,4.104-0.366c9.5-4.333,10.667-22.333,10.667-22.333
			c-1.3-1.3-4.399-2.211-8.196-2.756l-2.401-0.287c-6.325-0.623-13.803-0.356-18.23,0.717c-2.313,0.56-3.8,1.338-3.838,2.326
			c-0.058,1.509,1.444,5.204,3.824,9.193C51.292,188.223,55.118,193.116,59.094,195.651z"/>
		<path fill="#FDCB6E" d="M40.104,243.842c0,3.333,21.167,25,27.5,17.833s2.833-25,2.833-25
			C64.271,235.175,40.104,240.508,40.104,243.842z"/>
		<path fill="#FDCB6E" d="M75.437,321.008c2.5-24.334-7.333-29.333-7.333-29.333c-3.134,0.873-6.024,1.683-8.671,2.456l-3.513,1.053
			c-16.73,5.151-21.057,8.973-7.982,19.158c1.045,0.814,2.072,1.546,3.079,2.21c4.132,2.726,7.92,4.244,11.218,5.026
			C70.305,323.494,75.437,321.008,75.437,321.008z"/>
		<path fill="#FDCB6E" d="M261.481,215.9c-0.232,1.373-0.669,3.463-1.349,4.9c-0.175,0.369-0.363,0.698-0.57,0.957
			c-1.5,1.875,4,5.125,9.625,0c2.377-2.166,3.765-4.014,4.583-5.432c0.325-0.563,0.56-1.055,0.728-1.473
			C270.815,215.234,266.421,215.612,261.481,215.9z"/>
		<path fill="#FDCB6E" d="M231.101,215.527c-0.205,2.064-1.086,4.975-2.595,8.387c-2.104,4.754,0.663,4.97,4.74,1.854
			c2.904-2.221,7.951-6.916,9.44-9.365l0,0C238.935,216.381,235.039,216.07,231.101,215.527z"/>
		<path fill="#FDCB6E" d="M196.937,220.672c-3.574,4.963,4.625,4.461,8.875,1.086c3.839-3.049,7.766-6.1,10.335-9.332
			c-4.887-1.344-9.632-2.966-14.039-4.776C201.751,209.341,200.164,216.191,196.937,220.672z"/>
		
			<ellipse transform="matrix(-0.1635 0.9865 -0.9865 -0.1635 546.0638 -119.4854)" fill="#FDCB6E" cx="323.687" cy="171.758" rx="7.25" ry="3.5"/>
		
			<ellipse transform="matrix(-0.1266 0.992 -0.992 -0.1266 540.8134 -146.2935)" fill="#FDCB6E" cx="334.812" cy="164.945" rx="6.187" ry="3.125"/>
		<path fill="#37AA6B" d="M332.911,180.184c-1.649,2.465-3.139,4.429-4.224,5.574c-0.911,0.962-2.559,2.245-4.709,3.724
			c-8.472,5.825-24.875,14.741-36.041,19.526c-14,6-47.5,5.25-68.75,1.5s-40.75-18.75-40.75-18.75
			c3.451,5.475,12.46,11.286,23.671,15.892c4.407,1.811,9.152,3.433,14.039,4.776c4.915,1.351,9.967,2.416,14.954,3.102
			c3.938,0.543,7.834,0.854,11.586,0.875l0,0c6.815,0.039,13.157-0.172,18.794-0.502c4.94-0.288,9.334-0.666,13.017-1.047
			c1.738-0.18,3.317-0.359,4.722-0.531c4.801-0.584,7.554-1.064,7.554-1.064s34.164-13.5,46.414-30
			c6.252-8.421,9.397-16.511,10.982-22.419c1.521-5.669,1.606-9.331,1.606-9.331C344.895,159.666,338.102,172.426,332.911,180.184z"
			/>
		<path fill="#37AA6B" d="M193.937,133.758c5-13,8.25-13.5,14.5-17.25s12.25,7.25,18.5,16.173s8.5,5.077,10.005,3.577
			s6.65-14.775,14.745-17.25s16.25,10.75,18.75,19.867s6.5,12.633,6.5,12.633l-1-2c0,0-0.622-2.999-1.645-7.034
			c-1.651-6.522-4.35-15.76-7.168-19.466c-4.563-6-9.438-7.75-18.313-4.75s-12.521,15.478-14.14,17.481l0,0
			c-0.379,0.469-0.829,0.738-1.336,0.817c-1.658,0.257-3.957-1.598-6.635-5.79c-0.001-0.001-0.002-0.003-0.003-0.004
			c-0.295-0.463-0.581-0.997-0.866-1.575c-3.091-6.27-6.021-18.337-18.192-14.644c-0.007,0.002-0.013,0.004-0.02,0.007
			c-0.472,0.144-0.922,0.304-1.361,0.475c-1.702,0.66-3.165,1.513-4.43,2.49C194.222,123.39,193.937,133.758,193.937,133.758z"/>
		<path fill="#37AA6B" d="M114.976,114.245c-0.192,0.147-0.295,0.229-0.295,0.229C114.78,114.396,114.877,114.324,114.976,114.245z"
			/>
		<path fill="#37AA6B" d="M201.039,116.756c0,0-0.011-0.011-0.024-0.025c-1.033-1.042-39.632-39.378-86.038-2.486
			c0.956-0.729,4.229-3.116,9.327-5.685C138.878,101.215,168.344,92.407,201.039,116.756z"/>
		<path fill="#37AA6B" d="M89.162,138.28c7.887,5.451,21.109-2.522,21.109-2.522c19.833-12,6.202-19.001,6.202-19.001
			c0.018,0.031,0.033,0.06,0.051,0.091c5.439,9.415-0.854,10.923-6.253,14.91c-5.417,4-14.333,6.25-16.583,6.25
			c-2.244,0-8.106-8.497-8.136-8.54l-0.003-0.004c0.002,0.004,0.003,0.007,0.005,0.011c0.497,0.97,0.914,1.855,1.271,2.664
			c0.665,1.507,1.11,2.735,1.401,3.667L89.162,138.28z"/>
		<path fill="#37AA6B" d="M69.259,171.753c0,0,8.572-23.297,19.906-33.464l-0.003-0.01l-0.936-2.474l-0.001-0.003
			c0,0-11.125,13.119-17.484,25.41c-1.864,3.603-3.322,7.136-3.965,10.245l0.064,0.008l2.401,0.287L69.259,171.753z"/>
		<path fill="#37AA6B" d="M258.208,221.387c0.208-0.066,0.324-0.104,0.324-0.104C258.423,221.318,258.318,221.351,258.208,221.387z"
			/>
		<path fill="#37AA6B" d="M138.187,205.383c0,0,7.113,19.134,36.874,25.574c10.438,2.26,23.668,2.951,40.353,0.712
			c12.299-1.65,26.469-4.89,42.795-10.282c-1.207,0.387-5.813,1.82-12.618,3.473C219.253,231.254,160.063,240.883,138.187,205.383z"
			/>
		<path fill="#37AA6B" d="M59.092,196.008c-2.592,13-4.417,29.313-5.235,37.455c2.252-18.962,9.242-35.978,9.242-35.978
			l-0.433-0.055l-3.573-1.423H59.092z"/>
		<path fill="#37AA6B" d="M53.857,233.284c-0.199,1.678-0.365,3.369-0.482,5.068C53.375,238.353,53.541,236.437,53.857,233.284z"/>
		<path fill="#37AA6B" d="M223.771,286.844c-2.011-1.916-3.762-3.857-5.288-5.809c-0.188,0.057-0.336,0.128-0.421,0.223l-1.125-1.5
			c0,0,0.208-0.012,0.563-0.021c-10.501-14.39-8.944-29.146-6.147-38.444c0.108-0.361,0.219-0.715,0.331-1.06l0.002-0.008l0,0
			c1.352-4.161,2.88-7.065,3.47-8.114c0.122-0.217,0.206-0.357,0.237-0.41c-15.009,23.804-4.232,44.03,5.729,55.693
			c0.62,0.727,1.238,1.424,1.847,2.084c5.069,5.494,9.47,8.592,9.47,8.592c7.301,6.113,13.611,12.27,19.082,18.396
			c0.761,0.852,1.505,1.703,2.233,2.554c9.522,11.125,16.285,22.112,21.025,32.513c0.407,0.893,0.8,1.781,1.178,2.665
			c1.052,2.461,1.991,4.885,2.83,7.268c1.677-0.863,3.335-1.757,4.982-2.669C272.001,325.673,241.347,303.596,223.771,286.844z"/>
		<path fill="#37AA6B" d="M215.392,231.701c0.006-0.008,0.011-0.017,0.016-0.025C215.408,231.676,215.402,231.686,215.392,231.701z"
			/>
		<path fill="#37AA6B" d="M59.47,294.119c0,0-3.407-3.04-6.095-35.951c0,0-0.836,18.613,2.377,37.065l0.167-0.05l3.513-1.053
			L59.47,294.119z"/>
		<path fill="#37AA6B" d="M63.099,321.881l6.92,17.355c1.052,0.863,2.109,1.72,3.179,2.561c-3.74-8.65-8.261-19.49-8.261-19.49
			L63.099,321.881z"/>
		<path fill="#37AA6B" d="M39.934,231.273c3.178-10.733,4.794-18.016,4.794-18.016s-12.377,38.36-22.66,57.727
			c-0.206,0.389-0.412,0.771-0.616,1.143c-0.024,0.044-0.048,0.09-0.072,0.133c-0.583,1.059-1.181,2.217-1.786,3.439
			c0.587,1.191,1.183,2.377,1.793,3.554c0.406-0.878,0.812-1.733,1.217-2.552C30.442,260.877,36.242,243.744,39.934,231.273z"/>
		<path fill="#37AA6B" d="M126.437,297.164c0-0.001-0.006-0.01-0.006-0.01c0.002,0.004,0.005,0.008,0.008,0.012
			c0.781,1.233,1.55,2.42,2.305,3.561c17.063,25.777,27.434,28.422,31.84,27.933c1.666-0.185,2.479-0.817,2.479-0.817
			C142.896,322.073,126.571,297.367,126.437,297.164z"/>
		<path fill="#37AA6B" d="M158.01,307.039c0.008,0.122,0.028,0.246,0.038,0.367c0.761,9.982,5.889,17.658,5.889,17.658
			s0-0.001,0-0.002c0-0.032-0.061-0.071-0.081-0.104c-0.074-0.119-0.157-0.246-0.231-0.383c-1.415-2.593-3.05-8.292-4.2-12.758
			c-0.475-1.845-0.87-3.478-1.132-4.592c-0.224-0.956-0.354-1.535-0.354-1.535C157.949,306.146,157.981,306.592,158.01,307.039z"/>
		<path fill="#37AA6B" d="M146.17,257.324c-0.215-0.521-0.422-1.048-0.597-1.586C145.573,255.738,145.695,256.311,146.17,257.324z"
			/>
		<path fill="#37AA6B" d="M146.17,257.324c3.719,9.023,13.332,15.651,22.544,20.158c9.624,4.707,18.775,7.097,20.297,7.477
			c0.145,0.035,0.244,0.061,0.244,0.061c-0.024-0.009-0.046-0.018-0.07-0.025c-16.433-5.591-26.712-11.478-33.126-16.494
			C149.731,263.553,147.167,259.455,146.17,257.324z"/>
		<path fill="#37AA6B" d="M160.529,295.211c0.953,1.064,1.882,2.075,2.649,2.859c0.008,0.01,0.014,0.014,0.022,0.022
			c2.861,2.916-6.263-8.335-6.263-8.335l4.113,0.041l14.493,0.209h0.021h-0.009l-20.619-1.275
			C154.937,288.732,157.832,292.201,160.529,295.211z"/>
		<path fill="#37AA6B" d="M211.683,240.233l-0.313,1.075l-0.491,1.684c8.94,8.985,37.809,16.016,42.684,14.266s14.959,0,14.959,0
			c-1.805-0.592-3.32-1.04-4.604-1.384c-5.774-1.544-6.729-0.903-6.729-0.903c-25.498,2.713-45.498-14.742-45.502-14.745l0,0
			L211.683,240.233z"/>
		<path fill="#37AA6B" d="M217.5,279.737c-0.354,0.009-0.563,0.021-0.563,0.021l1.125,1.5c0.085-0.095,0.232-0.166,0.421-0.223
			c2.296-0.679,11.579,1.348,11.579,1.348c14.402,5.358,18.201,4.461,18.201,4.461c-0.02-0.001-0.039-0.004-0.059-0.005
			c-5.777-0.427-11.263-3.081-11.263-3.081C227.83,279.789,219.645,279.687,217.5,279.737z"/>
		<path fill="#37AA6B" d="M247.956,268.275c0.574,0.158,1.112,0.271,1.591,0.316C249.546,268.592,248.932,268.488,247.956,268.275z"
			/>
		<path fill="#37AA6B" d="M236.942,264.186c3.676,2.276,8.543,3.549,11.014,4.09c-0.46-0.127-0.946-0.29-1.441-0.47
			c-3.748-1.36-8.161-3.964-8.161-3.964c0.755-0.937,7.142-2.648,10.602-3.521c1.069-0.27,1.854-0.457,2.111-0.52
			c0.06-0.014,0.098-0.022,0.098-0.022C237.764,260.549,236.942,264.186,236.942,264.186z"/>
		<path fill="#37AA6B" d="M235.45,271.645c-0.321,1.5,4.571,7.598,4.571,7.598c-0.999-1.361-2.584-5.813-2.584-5.813
			c4.487,1.246,8.261,0.579,8.282,0.579h0.002C241.671,273.008,235.45,271.645,235.45,271.645z"/>
	</g>
</g>
</svg>
